<?xml version="1.0" standalone="no"?>
<!DOCTYPE svg PUBLIC "-//W3C//DTD SVG 20010904//EN"
 "http://www.w3.org/TR/2001/REC-SVG-20010904/DTD/svg10.dtd">
<svg version="1.0" xmlns="http://www.w3.org/2000/svg"
 width="718.000000pt" height="718.000000pt" viewBox="0 0 718.000000 718.000000"
 preserveAspectRatio="xMidYMid meet">
<metadata>
Created by potrace 1.11, written by Peter Selinger 2001-2013
</metadata>
<g transform="translate(0.000000,718.000000) scale(0.100000,-0.100000)"
fill="#000000" stroke="none">
<path d="M1076 7138 c-3 -24 -15 -128 -26 -233 -12 -104 -29 -260 -40 -345
-10 -85 -22 -189 -25 -230 -4 -41 -12 -81 -17 -87 -16 -20 -1 -58 40 -106 20
-24 59 -71 86 -103 l49 -59 -7 -129 c-3 -72 -11 -172 -17 -224 l-11 -94 26
-27 26 -26 -5 30 c-3 17 -2 80 4 140 6 61 15 166 20 235 6 69 15 179 21 245
34 410 102 1025 116 1047 3 4 -49 8 -115 8 l-120 0 -5 -42z"/>
<path d="M2240 7165 c0 -8 5 -15 10 -15 6 0 10 7 10 15 0 8 -4 15 -10 15 -5 0
-10 -7 -10 -15z"/>
<path d="M2328 7140 c-4 -25 -10 -101 -12 -170 l-5 -125 15 130 c8 72 13 148
12 170 l-3 40 -7 -45z"/>
<path d="M1680 7137 c0 -2 7 -20 15 -38 14 -33 14 -33 15 -8 0 15 -7 32 -15
39 -8 7 -15 10 -15 7z"/>
<path d="M2301 6744 c0 -11 3 -14 6 -6 3 7 2 16 -1 19 -3 4 -6 -2 -5 -13z"/>
<path d="M2267 6412 c-4 -32 -11 -133 -18 -223 -12 -184 -22 -246 -33 -214
-14 39 -90 194 -93 191 -8 -7 31 -174 39 -170 4 3 8 -4 8 -16 0 -12 5 -18 10
-15 9 6 14 -32 11 -95 l-1 -25 12 25 c11 23 13 20 18 -40 l5 -65 8 85 c5 47 7
90 6 95 -2 6 0 30 4 55 10 70 39 461 34 466 -2 2 -7 -22 -10 -54z"/>
<path d="M952 6149 c-10 -16 -10 -24 -1 -35 7 -9 9 -30 6 -58 -5 -32 -1 -52
15 -82 l20 -39 -21 19 c-17 16 -21 16 -26 4 -3 -8 -5 -19 -4 -24 6 -21 -14
-184 -22 -184 -20 0 -6 -21 48 -73 32 -31 59 -55 60 -53 2 2 -4 61 -12 132 -8
71 -15 138 -14 149 1 31 26 -82 34 -152 8 -80 25 -92 25 -19 0 30 5 58 11 62
8 5 10 0 6 -17 -8 -36 -20 -225 -14 -219 4 3 16 92 28 198 l21 192 -68 75
c-46 53 -69 87 -73 111 -6 33 -7 34 -19 13z"/>
<path d="M2201 6114 c0 -11 3 -14 6 -6 3 7 2 16 -1 19 -3 4 -6 -2 -5 -13z"/>
<path d="M907 5693 c-3 -5 -2 -24 3 -42 6 -23 5 -31 -4 -31 -10 0 -13 -18 -12
-67 3 -97 -19 -372 -54 -673 -19 -158 -55 -518 -65 -645 -17 -213 -28 -286
-47 -296 -15 -8 -17 -14 -8 -24 9 -11 7 -12 -9 -8 -19 5 -25 15 -22 36 0 4
-11 7 -26 8 -16 0 -22 3 -15 6 10 4 8 9 -8 20 -17 12 -24 12 -36 2 -8 -6 -16
-10 -17 -8 -1 2 -9 16 -16 31 -11 22 -17 25 -32 15 -13 -8 -24 -8 -42 0 -14 7
-36 9 -48 7 -21 -5 -22 -4 -6 6 9 6 17 15 17 20 0 17 -25 11 -43 -10 -19 -23
-49 -27 -41 -6 7 18 -29 29 -83 26 -30 -1 -51 5 -72 19 -36 26 -40 26 -51 -1
-8 -22 -9 -22 -9 5 -1 20 -6 27 -22 27 -11 0 -17 5 -14 10 3 6 -1 13 -9 16 -9
3 -16 14 -16 23 1 14 2 14 14 -1 19 -26 40 -23 32 5 -3 12 -6 30 -6 39 0 20
-55 52 -76 44 -8 -3 -14 -17 -14 -31 0 -30 -16 -33 -25 -5 -3 11 -11 20 -16
20 -5 0 -9 -814 -9 -2115 l0 -2115 819 0 819 0 17 78 c9 42 27 120 41 173 17
70 22 110 17 147 -6 53 -11 58 -41 43 -60 -30 -112 -50 -112 -42 0 14 28 33
40 26 6 -3 10 3 10 15 0 11 -7 23 -16 27 -8 3 -13 12 -10 19 3 8 0 14 -7 14
-15 0 -42 -40 -39 -57 2 -7 -2 -22 -8 -34 -7 -11 -14 -33 -16 -47 -12 -77 -32
-154 -33 -129 -1 35 37 236 50 259 5 10 9 30 9 45 1 16 7 39 15 53 8 14 14 41
15 60 0 65 -20 12 -61 -155 -15 -61 -28 -82 -40 -63 -14 21 -10 187 6 258 8
36 14 86 15 111 0 47 26 188 56 302 11 42 12 63 5 65 -6 2 -11 13 -12 25 l0
22 -11 -22 c-13 -28 -32 -35 -74 -27 -40 7 -69 59 -60 108 12 71 19 96 25 96
4 0 13 16 20 35 22 62 152 248 217 312 90 88 222 173 268 173 9 0 16 5 16 12
0 6 3 8 7 5 3 -4 16 -1 28 7 24 16 69 11 59 -6 -3 -5 16 6 42 25 87 60 170
106 240 132 38 14 105 43 149 65 239 117 400 189 408 181 13 -13 -1 -31 -22
-31 -9 0 -36 -12 -59 -27 -64 -42 -114 -151 -173 -378 -32 -127 -33 -275 -1
-365 13 -36 34 -83 47 -105 27 -45 120 -149 110 -124 -4 10 -1 20 5 24 8 5 8
10 0 20 -8 9 -6 14 5 19 9 3 13 2 10 -3 -3 -5 4 -12 15 -16 27 -8 25 -23 -2
-28 -17 -3 -15 -5 9 -6 18 0 36 -7 40 -15 4 -8 15 -16 23 -18 8 -2 18 -7 23
-13 4 -6 10 -5 16 3 7 11 9 11 14 -2 4 -10 13 -13 23 -9 12 5 15 3 9 -6 -5
-10 -2 -11 12 -7 14 5 23 0 33 -18 7 -14 19 -27 27 -30 9 -4 11 -1 7 5 -4 7
-2 10 5 8 7 -3 12 -8 12 -12 -1 -4 15 -22 35 -39 l35 -31 137 -1 c249 0 482
73 722 225 47 30 95 60 105 66 11 7 38 22 60 34 67 36 227 159 284 218 113
118 160 200 298 518 3 8 -2 13 -11 13 -9 0 -16 -3 -17 -7 -2 -27 -10 -49 -33
-95 -14 -29 -26 -57 -26 -64 0 -7 -5 -14 -10 -16 -6 -2 -12 -13 -14 -25 -3
-13 -10 -31 -16 -40 -10 -16 -11 -15 -6 7 3 14 1 32 -5 40 -8 13 -12 12 -28
-8 -24 -28 -29 -20 -26 43 4 69 4 72 14 57 7 -11 9 -11 14 2 3 8 2 18 -3 21
-12 8 -13 55 -1 55 5 0 12 -10 15 -22 6 -21 7 -22 17 -5 13 21 4 37 -22 37
-10 0 -19 5 -19 11 0 7 9 9 23 6 22 -6 22 -6 2 9 -18 14 -21 13 -34 -16 -8
-16 -18 -30 -22 -30 -12 0 -16 32 -8 63 5 17 4 27 -3 27 -6 0 -9 2 -6 5 3 3
33 -9 68 -26 48 -23 60 -33 49 -41 -10 -7 -8 -8 8 -3 19 5 22 3 17 -12 -4 -14
-4 -15 4 -4 5 7 15 11 21 7 7 -5 9 -1 5 8 -6 15 -12 18 -30 15 -4 0 -10 3 -13
8 -15 21 -111 74 -122 67 -7 -4 -9 -3 -5 4 3 6 -3 16 -16 23 -98 52 -260 204
-299 281 -24 47 -24 49 5 38 13 -4 55 -12 93 -15 l70 -7 6 -54 c3 -30 12 -67
20 -83 10 -20 11 -33 5 -39 -7 -7 9 -16 46 -28 31 -10 56 -21 56 -26 0 -12 27
-36 112 -100 73 -56 118 -73 118 -44 0 8 6 17 13 19 9 4 9 8 0 14 -14 10 -12
118 3 133 33 33 60 -35 52 -129 l-3 -43 65 -40 c36 -22 91 -64 122 -95 50 -49
62 -56 106 -61 l49 -4 7 38 c11 57 69 140 123 174 55 35 93 39 93 10 0 -55 36
-86 116 -97 66 -9 74 -25 42 -83 -20 -35 -24 -50 -15 -59 18 -18 23 -14 52 34
28 49 29 50 119 18 53 -18 76 -18 50 2 -14 11 -4 10 41 -4 33 -11 80 -25 104
-32 32 -10 39 -15 25 -19 -11 -4 14 -15 72 -32 49 -14 199 -57 334 -95 418
-120 841 -233 871 -233 12 0 12 2 -1 10 -10 7 -11 10 -2 10 10 0 12 67 10 316
l-3 316 -120 45 c-66 24 -129 49 -140 53 -53 23 -289 88 -505 139 l-45 10 51
-4 c116 -11 449 -108 672 -196 40 -16 77 -29 82 -29 6 0 10 59 10 148 l0 149
-152 8 c-237 11 -409 14 -458 5 l-45 -7 40 -2 c69 -2 250 -41 281 -60 17 -11
17 -12 -6 -6 -14 3 -59 12 -100 20 -41 8 -88 17 -105 20 -16 4 -102 9 -190 12
-180 6 -275 -7 -427 -57 -88 -30 -230 -96 -281 -132 -16 -11 -30 -18 -33 -15
-6 6 63 47 166 99 l74 37 -2 43 c-8 117 -42 145 -188 155 -58 4 -90 9 -79 13
18 7 18 8 -5 12 -14 3 -5 4 20 3 83 -5 86 2 36 76 -51 76 -107 132 -166 165
-51 29 -60 30 -29 5 l24 -20 -40 9 c-31 6 -123 14 -236 20 -4 0 -10 10 -13 23
-6 22 -7 21 -22 -7 -13 -22 -18 -26 -25 -15 -5 8 -9 9 -9 3 0 -8 -129 -11
-177 -3 -5 1 -29 1 -55 0 -40 -1 -47 -4 -42 -18 5 -17 5 -17 -9 0 -8 10 -19
17 -23 16 -5 -1 -31 7 -57 19 -27 12 -63 22 -80 23 l-32 1 33 9 c28 9 31 12
22 30 -6 11 -15 17 -20 14 -6 -3 -7 0 -5 8 3 7 -3 21 -14 31 -15 13 -49 20
-153 27 -73 6 -167 9 -208 7 l-75 -3 -20 -66 c-16 -55 -25 -68 -47 -77 -22 -8
-28 -17 -28 -41 0 -30 2 -31 43 -30 40 1 41 1 15 11 -30 10 -38 28 -13 28 8 0
15 7 15 15 0 8 8 31 17 50 15 31 18 33 25 18 6 -16 8 -15 14 6 6 22 8 23 14 7
5 -16 17 -19 66 -18 32 0 64 -4 71 -10 7 -5 17 -7 23 -3 5 3 15 3 22 -1 8 -5
6 -10 -7 -14 -11 -4 21 -10 73 -14 59 -4 100 -3 114 4 20 9 20 8 -2 -7 -50
-36 -102 -88 -132 -131 -27 -40 -32 -43 -43 -29 -17 23 -81 22 -101 -1 -18
-22 -90 -20 -163 4 -31 10 -47 12 -55 4 -21 -21 14 -33 113 -38 56 -2 101 -9
101 -13 0 -5 19 -9 43 -9 43 0 61 -9 87 -44 14 -18 13 -19 -5 -13 -16 6 -15 3
5 -13 29 -23 16 -26 -31 -6 -22 9 -41 11 -56 5 -13 -5 -23 -5 -23 0 0 5 8 12
18 16 16 6 16 7 -1 17 -21 11 -27 8 -31 -18 -2 -15 -12 -17 -72 -15 -38 1 -71
4 -73 7 -2 2 -13 -4 -24 -13 -18 -17 -19 -17 -32 0 -16 22 -26 22 -19 0 5 -15
4 -15 -6 1 -7 10 -19 51 -27 90 -8 39 -21 78 -28 86 -14 16 -9 74 6 64 5 -3 9
1 9 10 0 8 -6 16 -12 18 -7 3 -13 19 -14 37 -1 26 1 31 16 26 14 -4 19 2 24
29 8 42 26 57 26 22 0 -13 7 -31 15 -39 12 -12 12 -17 1 -26 -7 -6 -16 -8 -20
-4 -4 4 -4 -1 0 -12 5 -11 9 -14 12 -7 2 7 10 12 17 12 15 0 21 14 34 83 5 26
5 47 0 47 -5 0 -9 -6 -9 -12 0 -7 -8 -23 -18 -36 l-18 -23 1 23 c0 13 4 29 8
36 5 6 6 12 2 12 -3 0 -1 10 5 23 8 16 4 14 -14 -8 -14 -16 -33 -44 -41 -62
-29 -61 -37 -51 -34 45 2 50 7 94 11 98 5 4 30 6 58 5 28 -1 50 2 49 6 -4 25
4 41 24 51 12 6 16 11 9 11 -8 1 -26 10 -42 21 -15 11 -31 16 -35 12 -4 -4 -4
3 -1 15 5 16 4 22 -6 20 -7 -2 -10 -2 -6 0 5 3 5 16 2 30 -7 28 14 76 29 66 6
-3 7 -1 3 6 -6 9 -11 9 -21 1 -8 -7 -19 -9 -25 -5 -17 10 -11 37 10 42 10 3
22 14 26 25 4 15 12 18 33 13 15 -3 34 0 45 8 21 15 32 82 17 101 -8 10 -8 16
3 25 11 9 15 5 19 -19 4 -16 3 -38 0 -47 -6 -15 -4 -16 9 -5 14 11 17 10 21
-5 3 -10 4 30 3 90 -2 73 1 104 8 97 14 -14 26 -12 26 5 0 9 -9 15 -23 15 -19
0 -25 8 -35 45 -10 38 -16 45 -36 45 -13 0 -26 -3 -29 -7 -2 -5 -2 -2 -1 5 2
6 -1 12 -7 12 -6 0 -7 9 -3 23 12 36 6 163 -11 249 -10 45 -21 113 -25 152
-14 124 -19 151 -29 179 -6 15 -8 33 -5 41 3 8 1 17 -5 21 -6 3 -11 17 -11 31
0 13 -9 33 -20 44 -11 11 -17 26 -14 35 4 8 1 15 -5 15 -6 0 -11 9 -11 19 0
11 -5 21 -10 23 -6 2 -29 73 -50 157 -22 85 -41 156 -43 157 -26 23 -153 101
-195 120 -67 30 -195 63 -260 68 -26 2 -54 5 -62 7 -9 2 -14 -2 -12 -10 2 -12
-1 -11 -20 1 -14 9 -37 13 -60 10 -32 -3 -38 -1 -39 14 0 18 -1 17 -9 -1 -7
-17 -9 -17 -9 -2 -1 9 -6 17 -12 17 -6 0 -9 -7 -5 -15 3 -9 0 -15 -10 -15 -10
0 -14 6 -10 15 3 8 1 15 -4 15 -5 0 -11 -8 -13 -17 -3 -10 -5 -3 -6 15 0 18
-11 46 -23 63 l-22 30 -17 -23 c-16 -20 -16 -23 -1 -34 11 -8 23 -9 34 -3 12
6 18 6 18 -1 0 -5 -5 -10 -10 -10 -6 0 -9 -3 -9 -7 3 -20 -2 -27 -11 -13 -5 8
-13 11 -17 6 -4 -4 3 -16 16 -27 l23 -19 -26 2 c-17 2 -25 7 -21 15 3 10 -3
11 -22 6 l-27 -6 17 26 c14 22 15 30 5 47 -10 15 -10 22 0 32 18 18 15 33 -4
17 -12 -10 -14 -23 -10 -51 5 -30 3 -36 -8 -32 -8 3 -17 18 -19 32 l-4 27 -2
-28 c0 -16 -5 -25 -11 -22 -5 3 -10 3 -10 -2 0 -10 51 -53 64 -53 6 0 4 -5 -4
-10 -8 -5 -24 -10 -35 -10 -15 0 -17 2 -6 9 10 7 8 14 -10 35 -24 28 -53 34
-66 14 -14 -24 -11 -36 8 -31 10 3 17 10 16 15 -1 6 3 12 9 14 6 3 8 -9 5 -33
-3 -21 -6 -30 -9 -20 -5 23 -23 22 -29 -3 -7 -28 -43 -26 -43 2 0 12 -3 18 -7
14 -5 -4 -8 -13 -8 -19 0 -7 -10 -13 -21 -15 -15 -2 -23 4 -27 20 -8 28 -2 34
17 19 11 -10 16 -9 24 5 6 11 16 15 26 11 12 -5 10 2 -9 27 -14 18 -25 43 -25
54 0 12 -4 22 -9 22 -10 0 -7 -32 4 -50 6 -9 -8 -15 -29 -11 -5 1 -12 -3 -16
-10 -5 -8 -10 -5 -15 10 -3 11 -11 21 -16 21 -12 0 -11 -7 1 -31 12 -21 1 -25
-19 -6 -11 10 -13 9 -9 -3 3 -8 -1 -30 -9 -49 -16 -41 0 -60 28 -35 11 9 19
11 23 5 4 -5 2 -12 -4 -16 -6 -4 -8 -11 -5 -16 3 -5 -2 -6 -11 -2 -13 5 -15 3
-9 -7 6 -10 0 -12 -23 -8 -18 2 -33 0 -35 -6 -2 -7 -12 -7 -30 1 -34 16 -35
32 -2 25 20 -3 24 -1 19 12 -4 9 -1 16 6 16 7 0 10 7 7 14 -4 10 -1 13 9 9 7
-3 14 0 14 5 0 6 -9 14 -20 17 -11 3 -20 13 -20 21 0 18 9 18 32 -3 10 -9 18
-12 18 -7 0 13 -39 36 -69 39 -14 2 -31 -4 -39 -14 -7 -9 -10 -10 -6 -2 5 11
3 13 -10 8 -9 -4 -15 -3 -13 1 3 4 -6 15 -19 25 -24 18 -24 18 -24 -8 0 -17 4
-24 12 -19 7 4 8 3 4 -5 -4 -6 -2 -18 4 -26 9 -11 9 -15 1 -15 -6 0 -14 7 -17
15 -4 8 -11 12 -17 8 -6 -4 -8 0 -4 10 4 12 2 14 -11 10 -14 -6 -15 -4 -5 8
10 12 8 15 -6 15 -11 0 -17 -6 -14 -13 3 -7 1 -13 -4 -13 -4 0 -14 -9 -21 -20
-10 -17 -10 -23 3 -36 8 -9 15 -21 15 -27 0 -8 -3 -8 -8 -2 -4 6 -11 10 -17
11 -5 0 -24 4 -41 8 -25 7 -30 12 -26 31 3 16 9 21 23 18 10 -3 19 -13 19 -22
0 -14 2 -14 10 -1 6 9 5 17 -2 21 -7 4 -8 14 -3 25 5 11 7 23 6 29 -2 5 -3 17
-4 27 -1 13 -5 14 -19 7 -21 -11 -22 -13 -6 -39 10 -15 10 -22 0 -32 -9 -9
-12 -9 -12 0 0 6 -7 9 -15 6 -8 -4 -13 -10 -10 -14 7 -11 -5 -40 -15 -40 -5 0
-11 10 -13 23 -4 21 -4 21 -6 -3 -2 -23 -3 -24 -11 -5 -8 19 -9 19 -9 -2 -1
-26 -11 -29 -30 -10 -9 7 -11 7 -8 1 4 -7 1 -14 -7 -17 -15 -6 -36 11 -36 27
0 6 5 4 10 -4 5 -8 10 -10 10 -4 0 5 -7 19 -15 30 -14 18 -14 18 -15 0 0 -12
-5 -16 -16 -12 -9 3 -18 6 -20 6 -3 0 -2 5 1 11 11 17 -27 39 -48 27 -13 -7
-15 -13 -8 -22 5 -6 6 -17 2 -24 -6 -10 -11 -9 -22 4 -9 12 -10 15 -1 10 6 -4
12 -3 12 1 0 12 -43 38 -59 34 -7 -1 -10 2 -6 9 4 6 13 9 21 6 8 -3 14 1 14
10 0 10 6 14 14 11 9 -4 13 0 11 11 -2 9 -4 19 -4 22 -1 3 -5 -1 -9 -7 -4 -7
-19 -14 -32 -17 -14 -2 -24 -9 -23 -15 4 -16 -26 -1 -37 18 -5 10 -8 41 -6 69
1 29 -1 49 -5 44 -4 -4 -9 -31 -10 -61 -2 -41 1 -56 14 -66 9 -7 17 -18 17
-25 0 -10 -5 -9 -18 3 -17 16 -18 14 -20 -36 -1 -29 -4 -79 -7 -112 -3 -33 -7
-87 -9 -120 -10 -161 -28 -375 -35 -422 -6 -37 -5 -53 3 -53 8 0 8 -2 0 -8 -6
-4 -16 -80 -23 -172 -16 -214 -15 -202 -33 -241 -19 -38 -25 -81 -34 -221 -7
-96 -7 -97 -28 -83 -29 21 -70 20 -62 -1 3 -9 6 -20 6 -26 0 -6 11 -8 25 -6
13 3 22 2 20 -3 -3 -4 -1 -9 5 -11 6 -2 11 -20 12 -40 1 -25 7 -39 17 -43 12
-3 16 -18 16 -54 -1 -56 -1 -56 -34 -66 l-24 -7 6 68 c5 47 4 64 -3 53 -5 -9
-10 -39 -11 -68 -1 -28 -6 -51 -11 -51 -4 0 -7 3 -7 8 4 24 -3 43 -13 39 -7
-2 -12 -9 -11 -15 4 -19 -22 -19 -92 0 -38 10 -87 21 -108 23 -21 2 -46 9 -55
14 -15 9 -15 10 3 11 11 0 31 3 45 5 14 3 19 3 12 -1 -17 -8 -5 -24 13 -17 9
3 22 0 31 -7 11 -10 18 -10 27 -1 9 9 9 14 -2 20 -11 7 -11 9 0 14 8 3 -31 4
-85 2 -73 -3 -102 0 -112 10 -11 11 -11 14 3 20 26 10 -3 25 -49 25 -20 0 -39
4 -43 9 -3 6 -27 13 -53 16 -68 10 -82 15 -82 31 0 8 -3 14 -7 14 -5 0 -23 13
-42 29 -27 23 -39 28 -53 20 -10 -5 -18 -13 -18 -18 0 -13 -84 -21 -95 -9 -7
7 -6 12 3 15 6 3 12 12 12 21 0 15 -2 15 -10 2 -14 -22 -12 -7 5 34 13 31 19
35 39 30 25 -6 40 14 30 40 -7 19 -63 41 -74 30 -12 -14 -40 -101 -40 -129 0
-13 -4 -26 -9 -30 -14 -8 -24 59 -18 115 7 56 -3 70 -50 70 -42 0 -44 -23 -3
-42 30 -13 39 -31 20 -43 -5 -3 -10 -21 -10 -38 0 -24 3 -28 10 -17 7 11 10 7
10 -17 0 -22 -5 -33 -14 -33 -18 0 -29 -27 -13 -33 22 -8 -2 -19 -28 -13 -16
4 -25 13 -25 25 0 11 -4 21 -10 23 -11 4 5 279 20 345 6 23 10 76 10 118 0 42
4 117 10 168 5 51 17 169 25 262 31 357 46 493 61 585 l16 95 -115 110 c-62
61 -116 117 -119 125 -3 9 -7 10 -11 3z m1383 -393 c0 -10 6 -21 13 -23 7 -4
6 -6 -4 -6 -17 -1 -29 18 -29 45 0 9 5 12 10 9 6 -3 10 -15 10 -25z m80 20 c0
-5 -7 -10 -15 -10 -8 0 -15 5 -15 10 0 6 7 10 15 10 8 0 15 -4 15 -10z m-114
-38 c-4 -3 -11 0 -16 8 -15 24 -11 33 6 15 9 -9 13 -19 10 -23z m769 28 c3 -5
1 -10 -4 -10 -6 0 -11 5 -11 10 0 6 2 10 4 10 3 0 8 -4 11 -10z m-181 -32 c-4
-6 -1 -14 6 -18 8 -5 5 -9 -10 -13 -19 -5 -21 -3 -16 21 4 15 3 23 -1 17 -4
-5 -17 -11 -28 -13 -17 -2 -16 0 4 12 26 15 55 11 45 -6z m106 3 c0 -11 -4
-23 -10 -26 -6 -4 -9 5 -8 19 3 30 18 35 18 7z m-720 -11 c0 -5 -4 -10 -9 -10
-6 0 -13 5 -16 10 -3 6 1 10 9 10 9 0 16 -4 16 -10z m186 -6 c17 -14 17 -15 1
-10 -10 3 -25 6 -33 6 -8 0 -14 5 -14 10 0 15 24 12 46 -6z m324 6 c8 -5 12
-11 10 -14 -3 -2 -14 2 -24 10 -22 15 -10 19 14 4z m-367 -16 c8 -8 -3 -34
-14 -34 -5 0 -9 7 -9 15 0 9 -6 12 -15 9 -8 -4 -15 -1 -15 5 0 11 42 16 53 5z
m200 -18 c19 -16 25 -29 20 -41 -4 -12 -3 -16 4 -12 6 4 21 3 34 -1 18 -7 19
-10 6 -15 -9 -3 -19 -2 -22 4 -4 5 -11 7 -16 4 -13 -9 -11 -26 2 -22 6 1 13
-3 16 -10 2 -7 -3 -10 -14 -8 -10 2 -22 4 -26 4 -5 1 -5 6 -1 12 4 8 -1 9 -15
4 -19 -6 -19 -4 6 21 24 25 26 29 11 32 -10 2 -18 10 -18 18 0 8 -7 14 -16 12
-10 -2 -19 3 -21 10 -7 20 20 14 50 -12z m-313 -12 c0 -22 -16 -17 -17 6 -1
11 2 18 8 15 5 -4 9 -13 9 -21z m30 22 c0 -3 -4 -8 -10 -11 -5 -3 -10 -1 -10
4 0 6 5 11 10 11 6 0 10 -2 10 -4z m220 -3 c0 -12 -14 -28 -26 -30 -7 -1 -10
6 -7 17 5 19 33 29 33 13z m124 -18 c3 -8 0 -17 -6 -21 -11 -7 -28 13 -28 33
0 16 27 6 34 -12z m63 -20 c-18 -17 -37 -20 -37 -4 0 5 4 7 10 4 5 -3 15 3 22
15 7 11 14 16 16 10 2 -5 -3 -17 -11 -25z m43 18 c0 -25 -17 -49 -27 -39 -4 5
-3 11 3 13 7 2 10 13 7 23 -3 11 0 20 6 20 6 0 11 -8 11 -17z m497 11 c-3 -3
-12 -4 -19 -1 -8 3 -5 6 6 6 11 1 17 -2 13 -5z m-907 -24 c-6 -11 -18 -20 -28
-20 -13 0 -12 4 8 20 31 25 33 25 20 0z m124 5 c-4 -8 -10 -12 -15 -9 -11 6
-2 24 11 24 5 0 7 -7 4 -15z m696 11 c0 -11 -19 -15 -25 -6 -3 5 1 10 9 10 9
0 16 -2 16 -4z m-590 -36 c0 -5 -5 -10 -11 -10 -5 0 -7 5 -4 10 3 6 8 10 11
10 2 0 4 -4 4 -10z m-122 -34 c-2 -3 6 -12 17 -20 14 -10 24 -11 33 -4 15 13
30 2 16 -11 -5 -5 -20 -12 -34 -16 -19 -5 -21 -4 -10 4 13 9 13 11 -1 11 -9 0
-20 7 -23 16 -7 19 -7 55 1 37 2 -7 3 -15 1 -17z m-198 4 c0 -5 -5 -10 -11
-10 -5 0 -7 5 -4 10 3 6 8 10 11 10 2 0 4 -4 4 -10z m459 -9 c5 12 9 12 25 -5
19 -19 19 -19 -2 -14 -12 4 -22 2 -22 -4 0 -5 -7 -3 -15 6 -8 8 -15 21 -15 28
0 7 6 4 12 -7 9 -16 12 -16 17 -4z m132 8 c-14 -5 -28 -6 -32 -2 -4 4 6 9 24
10 30 1 31 1 8 -8z m-184 -49 c-3 -11 2 -25 11 -32 13 -11 15 -10 9 5 -3 9 -2
17 4 17 14 0 7 -32 -8 -37 -15 -5 -35 31 -27 51 9 23 17 20 11 -4z m-117 0 c0
-5 -4 -10 -10 -10 -5 0 -10 5 -10 10 0 6 5 10 10 10 6 0 10 -4 10 -10z m50 -5
c7 -8 8 -15 2 -15 -5 0 -15 7 -22 15 -7 8 -8 15 -2 15 5 0 15 -7 22 -15z m-90
-35 c0 -5 -2 -10 -4 -10 -3 0 -8 5 -11 10 -3 6 -1 10 4 10 6 0 11 -4 11 -10z
m-48 -32 c-7 -7 -12 -8 -12 -2 0 14 12 26 19 19 2 -3 -1 -11 -7 -17z m98 12
c0 -5 -2 -10 -4 -10 -3 0 -8 5 -11 10 -3 6 -1 10 4 10 6 0 11 -4 11 -10z m11
-23 c-10 -9 -11 -8 -5 6 3 10 9 15 12 12 3 -3 0 -11 -7 -18z m1492 9 c3 -7 -6
-24 -20 -36 l-25 -22 21 -22 c24 -26 28 -53 6 -53 -8 0 -15 6 -15 14 0 8 -13
26 -29 42 l-28 27 22 26 c19 23 38 35 56 37 4 1 9 -5 12 -13z m-1540 -8 c-2
-5 -10 -8 -18 -8 -8 0 -16 3 -18 8 -3 4 5 7 18 7 13 0 21 -3 18 -7z m949 -22
c24 -8 56 -17 72 -21 36 -8 87 -45 62 -45 -20 0 -21 -26 -1 -34 9 -3 15 0 15
9 0 12 5 12 27 4 16 -6 35 -16 43 -24 8 -7 32 -16 53 -20 20 -4 37 -11 37 -16
0 -4 20 -20 45 -35 25 -14 48 -31 53 -37 4 -7 16 -17 27 -23 22 -12 24 -32 13
-114 -6 -46 -5 -57 10 -68 22 -16 2 -31 -33 -25 -20 4 -65 -25 -65 -42 0 -11
29 -4 33 8 3 6 6 2 6 -10 1 -27 -23 -30 -65 -8 -26 14 -30 13 -42 -3 -11 -14
-10 -18 3 -20 12 -3 16 -11 12 -28 -2 -14 -2 -22 1 -20 2 3 16 -4 30 -14 30
-25 52 -26 52 -3 0 14 3 14 12 5 10 -10 10 -15 -1 -22 -12 -7 -9 -14 12 -40
15 -17 27 -38 27 -46 0 -8 7 -14 15 -14 17 0 19 11 6 26 -5 5 -12 20 -16 32
-6 22 -5 23 14 12 12 -6 26 -8 32 -4 15 9 30 -16 23 -38 -6 -21 11 -31 53 -30
23 1 33 -3 33 -14 0 -8 7 -17 15 -20 8 -4 15 -14 15 -23 0 -11 3 -13 8 -4 5 8
8 -1 8 -21 0 -18 5 -51 11 -72 23 -79 31 -149 19 -156 -8 -6 -8 -8 0 -8 11 0
29 -72 25 -99 -1 -7 2 -10 8 -6 7 4 11 -6 11 -26 l0 -32 -19 21 c-18 22 -41
29 -41 14 0 -4 5 -13 11 -19 16 -16 1 -35 -22 -28 -13 4 -19 2 -19 -8 0 -8 -7
-17 -15 -21 -10 -3 -15 -19 -15 -46 0 -29 4 -40 15 -40 19 0 21 -66 3 -74 -10
-5 -10 -7 0 -12 18 -8 16 -48 -2 -41 -19 8 -39 -17 -32 -40 7 -25 -42 -62 -55
-42 -6 9 -4 15 6 17 10 2 15 16 15 43 0 23 5 39 12 39 6 0 8 3 5 7 -4 3 -19 0
-33 -7 -20 -11 -29 -12 -45 -2 -16 10 -19 9 -19 -6 0 -13 -13 -24 -39 -34 -43
-17 -51 -15 -51 14 0 20 -8 22 -28 9 -12 -7 -12 -12 -1 -30 8 -11 19 -21 26
-21 7 0 13 -9 13 -20 0 -22 -15 -27 -27 -7 -4 6 -17 17 -29 23 -17 10 -22 9
-32 -7 -12 -19 -42 -25 -56 -12 -10 11 -36 12 -36 2 0 -15 -19 -10 -39 10 -10
10 -23 20 -29 22 -6 2 -12 11 -14 19 -2 8 -11 21 -21 28 -9 7 -15 17 -12 22 3
5 1 19 -5 30 -8 14 -17 19 -33 15 -18 -5 -38 9 -98 69 -90 88 -156 126 -217
126 l-43 0 3 -47 c3 -48 3 -48 -29 -48 -17 0 -35 -3 -39 -7 -15 -16 -54 -8
-65 13 -7 13 -11 81 -10 183 1 203 2 226 14 219 6 -4 8 1 4 11 -4 9 0 27 8 40
18 27 19 57 7 111 -15 62 -22 73 -53 87 -19 9 -27 18 -24 29 3 9 -1 22 -10 29
-10 8 -15 9 -15 1 0 -6 5 -11 11 -11 6 0 8 -8 4 -19 -3 -11 -1 -22 5 -26 18
-11 -15 -33 -42 -28 -24 5 -58 59 -58 92 0 9 -8 11 -23 7 -22 -5 -23 -3 -17
37 6 45 47 120 60 112 5 -3 14 4 20 15 6 11 17 20 26 20 14 0 39 46 35 63 -1
5 8 11 19 14 11 3 20 14 20 24 0 24 17 25 23 2 2 -11 7 -3 11 19 5 20 14 39
22 42 7 3 11 12 8 20 -4 11 0 13 15 9 21 -5 30 12 10 19 -7 2 -4 15 8 36 14
23 23 28 30 21 8 -8 11 -6 10 7 -1 11 6 20 18 22 11 2 25 9 30 16 11 13 69 33
135 45 67 13 85 12 132 -3z m-955 -32 c-3 -3 -12 -4 -19 -1 -8 3 -5 6 6 6 11
1 17 -2 13 -5z m1602 -153 c18 -62 30 -115 28 -118 -4 -3 -67 215 -67 232 0
21 10 -9 39 -114z m-169 -336 c0 -5 -5 -3 -10 5 -5 8 -10 20 -10 25 0 6 5 3
10 -5 5 -8 10 -19 10 -25z m-1090 -113 c15 -17 2 -36 -15 -22 -9 8 -15 8 -20
0 -8 -12 -65 -14 -65 -1 0 5 14 11 30 15 25 4 30 11 30 33 1 27 1 27 15 8 8
-11 19 -26 25 -33z m-2726 -167 c-4 -8 -8 -15 -10 -15 -2 0 -4 7 -4 15 0 8 4
15 10 15 5 0 7 -7 4 -15z m2184 -92 c-10 -2 -28 -2 -40 0 -13 2 -5 4 17 4 22
1 32 -1 23 -4z m140 -33 c13 0 17 -93 6 -174 l-7 -47 -111 7 c-61 3 -124 7
-141 9 -16 2 -39 4 -50 4 -19 1 -20 6 -13 93 3 51 7 99 7 107 1 12 26 13 149
8 81 -4 153 -7 160 -7z m-2184 -29 c19 -7 19 -8 -2 -13 -12 -4 -20 -2 -17 2 3
5 -3 11 -12 13 -12 3 -13 5 -3 5 8 0 24 -3 34 -7z m4023 -58 c-3 -10 -5 -4 -5
12 0 17 2 24 5 18 2 -7 2 -21 0 -30z m-3754 -10 c-7 -2 -19 -2 -25 0 -7 3 -2
5 12 5 14 0 19 -2 13 -5z m3728 -113 c-24 -54 -35 -62 -27 -20 3 19 13 38 21
43 9 4 12 13 9 19 -4 7 -2 8 4 4 7 -4 5 -19 -7 -46z m-64 -32 c-3 -8 -6 -5 -6
6 -1 11 2 17 5 13 3 -3 4 -12 1 -19z m130 -46 c20 -78 19 -83 -19 -65 -42 20
-78 53 -78 70 0 10 7 8 22 -6 16 -16 25 -18 35 -9 11 9 12 13 1 19 -10 7 -10
9 1 9 9 0 11 8 6 28 -5 22 -4 25 6 14 7 -6 19 -33 26 -60z m-2794 -36 c-3 -11
-11 -39 -17 -62 -6 -22 -15 -41 -21 -42 -5 -1 -13 -18 -16 -39 l-6 -38 -2 42
c0 24 4 43 11 45 7 3 8 9 3 19 -9 13 -9 39 0 84 2 11 4 21 4 21 1 1 12 -1 26
-4 21 -4 24 -8 18 -26z m97 -62 c0 -8 -4 -12 -10 -9 -5 3 -10 13 -10 21 0 8 5
12 10 9 6 -3 10 -13 10 -21z m-15 -221 c-3 -13 -12 -23 -21 -23 -11 0 -14 6
-8 23 4 12 12 26 18 30 7 6 4 7 -6 3 -14 -4 -18 0 -18 19 0 13 4 26 9 30 5 3
7 20 4 39 -3 19 0 43 8 57 13 22 14 16 17 -66 2 -49 0 -100 -3 -112z m-55 141
c0 -14 -4 -22 -10 -19 -5 3 -10 17 -10 31 0 14 4 22 10 19 6 -3 10 -17 10 -31z
m2657 4 c-3 -7 -5 -2 -5 12 0 14 2 19 5 13 2 -7 2 -19 0 -25z m-1940 8 c-3 -8
-1 -17 6 -20 7 -2 3 -5 -9 -5 -29 -1 -37 10 -16 25 22 17 25 17 19 0z m-107
-10 c0 -9 -40 -13 -46 -5 -3 5 6 9 20 9 14 0 26 -2 26 -4z m180 -16 c0 -5 -4
-10 -9 -10 -6 0 -13 5 -16 10 -3 6 1 10 9 10 9 0 16 -4 16 -10z m1079 -45 c8
-22 17 -42 21 -45 14 -13 60 -87 60 -97 0 -6 6 -13 13 -16 23 -8 -18 -61 -53
-68 -31 -7 -32 -6 -26 22 5 25 1 32 -27 49 -17 11 -32 23 -33 27 0 5 -4 15 -8
25 -4 9 -5 31 -2 49 3 19 0 36 -6 40 -6 4 -8 18 -4 34 10 41 46 30 65 -20z
m-1173 10 c17 -4 20 -10 16 -35 -2 -16 -8 -30 -13 -30 -5 0 -7 11 -3 25 5 20
3 24 -10 19 -9 -3 -16 -11 -16 -18 0 -6 -5 -4 -10 4 -5 8 -23 15 -40 16 -23 1
-30 -3 -30 -17 0 -11 0 -22 -1 -26 0 -4 4 -9 10 -11 6 -2 12 5 12 15 1 16 2
16 6 1 3 -12 17 -18 51 -20 l47 -3 1 -50 c1 -45 1 -46 -3 -7 l-4 42 -92 1
c-97 0 -173 17 -87 18 45 1 46 2 48 36 3 35 2 35 -38 35 -22 0 -40 4 -40 9 0
8 151 5 196 -4z m-761 -98 c5 -13 4 -16 -9 -11 -12 5 -16 19 -15 63 l2 56 7
-45 c4 -25 10 -53 15 -63z m620 44 c-3 -6 -11 -11 -16 -11 -5 0 -4 6 3 14 14
16 24 13 13 -3z m1683 -53 c17 -17 15 -31 -8 -46 -19 -11 -20 -10 -20 23 0 37
8 43 28 23z m252 2 c0 -5 -10 -10 -22 -9 -22 0 -22 1 -3 9 11 5 21 9 23 9 1 1
2 -3 2 -9z m-1558 -142 c-4 -49 -2 -58 12 -58 12 0 16 -9 16 -34 0 -19 -3 -36
-7 -39 -5 -2 -3 -3 3 -1 7 1 17 -19 24 -44 7 -26 19 -66 26 -90 8 -23 14 -44
14 -46 0 -2 -15 -6 -32 -9 -18 -3 -48 -8 -67 -11 l-33 -5 6 157 c7 173 14 259
23 282 11 26 21 -41 15 -102z m1768 22 c0 -5 -4 -10 -9 -10 -6 0 -13 5 -16 10
-3 6 1 10 9 10 9 0 16 -4 16 -10z m-83 -22 c-3 -8 -6 -5 -6 6 -1 11 2 17 5 13
3 -3 4 -12 1 -19z m64 4 c20 -17 21 -19 3 -17 -24 1 -44 13 -44 26 0 14 16 11
41 -9z m-44 -31 c1 -14 -3 -18 -13 -14 -17 6 -18 20 -1 26 6 3 12 6 12 6 1 1
1 -8 2 -18z m-1850 -15 c12 0 23 -3 26 -6 3 -3 -3 -70 -12 -150 l-16 -145 -97
-9 c-84 -8 -99 -7 -113 8 -9 9 -26 16 -38 16 -12 0 -31 7 -41 15 -19 14 -19
15 6 15 48 0 40 19 -9 22 -58 4 -58 3 -48 146 l7 105 157 -8 c86 -4 166 -8
178 -9z m2138 -156 c3 -6 0 -17 -9 -25 -17 -17 -46 -20 -46 -5 0 6 7 10 15 10
8 0 15 7 15 15 0 17 16 20 25 5z m90 -12 c-4 -13 -7 -25 -7 -28 0 -21 4 -29
20 -33 13 -4 11 -5 -5 -6 -13 0 -23 4 -23 9 0 6 -16 10 -35 10 -34 0 -35 1
-32 35 2 34 3 35 45 35 40 0 43 -2 37 -22z m-155 -13 c0 -8 -9 -15 -20 -15
-11 0 -20 7 -20 15 0 8 9 15 20 15 11 0 20 -7 20 -15z m338 -30 c-3 -3 -9 2
-12 12 -6 14 -5 15 5 6 7 -7 10 -15 7 -18z m-41 -148 c-30 -62 -34 -67 -64
-67 -18 0 -33 5 -33 10 0 14 118 135 125 129 2 -3 -10 -35 -28 -72z m503 29
c14 -2 35 -4 48 -5 27 -1 28 -21 2 -44 -11 -9 -20 -26 -20 -36 0 -11 -3 -22
-7 -24 -8 -5 -88 5 -148 17 -28 6 -27 5 4 -7 29 -11 32 -15 16 -21 -10 -3 -21
-3 -24 2 -3 5 -14 11 -23 15 -13 4 -15 2 -11 -10 5 -13 3 -14 -15 -4 -20 10
-22 9 -23 -11 -1 -21 -1 -21 -11 4 -7 21 -6 33 6 50 9 12 16 35 16 50 0 23 5
27 33 31 31 4 107 1 157 -7z m206 -36 c8 -25 14 -46 14 -47 0 -2 -11 -3 -23
-3 -34 0 -67 60 -46 84 23 25 41 14 55 -34z m-594 0 c6 0 6 -6 -2 -15 -7 -8
-16 -12 -21 -9 -5 3 -9 0 -9 -7 0 -7 -3 -10 -6 -6 -3 3 0 23 7 44 11 32 14 34
17 16 2 -13 8 -23 14 -23z m743 19 c5 -5 -4 -9 -25 -10 -32 0 -33 -1 -12 -10
13 -5 27 -7 32 -4 12 7 36 -25 63 -85 l26 -55 -36 -3 c-41 -4 -40 -4 -47 31
-7 41 -15 50 -32 36 -11 -9 -14 -8 -14 2 0 10 -3 10 -12 1 -15 -15 -48 -15
-68 -2 -13 9 -12 12 4 25 11 8 29 12 41 9 14 -3 27 1 36 12 8 11 9 15 2 11 -8
-5 -15 1 -19 18 -3 14 -10 25 -15 25 -5 0 -9 5 -9 11 0 13 69 3 85 -12z
m-1394 -181 l-7 -43 -7 54 c-7 58 1 88 14 53 5 -12 5 -41 0 -64z m579 62 c0
-5 -5 -10 -11 -10 -5 0 -7 5 -4 10 3 6 8 10 11 10 2 0 4 -4 4 -10z m858 -72
c8 -10 -24 -14 -158 -16 -92 -2 -170 0 -173 5 -3 4 27 7 66 6 47 -1 63 1 47 6
-16 5 18 8 91 9 84 2 119 -1 127 -10z m-703 -8 c3 -5 1 -10 -4 -10 -6 0 -11 5
-11 10 0 6 2 10 4 10 3 0 8 -4 11 -10z m115 -21 c19 -10 -57 1 -85 13 -13 5
-4 6 25 2 25 -3 52 -10 60 -15z m220 11 c0 -6 -28 -10 -62 -11 -35 0 -72 -4
-83 -8 -12 -5 -28 -4 -40 3 -16 9 -4 12 70 17 50 3 96 6 103 7 6 1 12 -2 12
-8z m-610 -26 c0 -2 -7 -4 -15 -4 -8 0 -15 4 -15 10 0 5 7 7 15 4 8 -4 15 -8
15 -10z m-66 -51 c14 -13 28 -23 30 -23 15 0 106 -63 106 -73 0 -9 -2 -9 -8
-1 -11 17 -52 24 -45 8 3 -8 0 -14 -5 -14 -6 0 -9 11 -6 25 3 19 1 23 -12 18
-9 -3 -20 0 -24 7 -6 10 -12 10 -26 0 -16 -10 -16 -11 -1 -6 9 3 17 0 17 -5 0
-7 -11 -9 -25 -7 -29 6 -33 -6 -7 -21 9 -6 12 -11 6 -11 -6 0 -19 9 -29 20
-10 11 -30 20 -44 20 -23 1 -24 2 -8 11 16 9 17 13 4 27 -8 10 -18 24 -22 32
-7 12 -6 13 6 3 13 -11 15 -8 11 19 l-5 31 31 -19 c18 -10 43 -28 56 -41z
m116 37 c11 -8 9 -9 -12 -8 -16 1 -28 6 -28 10 0 11 22 10 40 -2z m802 -29
c-9 -2 -18 2 -20 8 -2 6 -8 9 -13 6 -5 -4 -6 1 -3 9 5 14 9 13 29 -2 19 -14
20 -18 7 -21z m-1052 4 c-7 -8 -17 -15 -22 -15 -6 0 -5 7 2 15 7 8 17 15 22
15 6 0 5 -7 -2 -15z m-1937 -12 c-7 -2 -19 -2 -25 0 -7 3 -2 5 12 5 14 0 19
-2 13 -5z m240 -10 c-24 -2 -62 -2 -85 0 -24 2 -5 4 42 4 47 0 66 -2 43 -4z
m1452 -3 c3 -5 1 -10 -4 -10 -6 0 -11 5 -11 10 0 6 2 10 4 10 3 0 8 -4 11 -10z
m855 0 c0 -5 -4 -10 -10 -10 -5 0 -10 5 -10 10 0 6 5 10 10 10 6 0 10 -4 10
-10z m95 -21 c-50 -6 -76 -2 -57 10 6 3 32 4 59 2 l48 -5 -50 -7z m-685 -4 c8
5 11 -2 9 -27 -2 -18 1 -39 5 -46 4 -8 10 -38 12 -68 3 -52 3 -54 -21 -54 -17
0 -29 9 -40 30 -16 31 -9 39 14 18 11 -11 12 -9 3 8 -7 12 -18 24 -27 28 -8 3
-15 13 -15 21 0 9 5 13 10 10 6 -3 10 -2 10 4 0 5 -4 13 -10 16 -17 10 -12 38
6 31 10 -4 15 0 13 12 -3 29 1 38 10 23 5 -7 14 -10 21 -6z m1337 -1 c-3 -3
-12 -4 -19 -1 -8 3 -5 6 6 6 11 1 17 -2 13 -5z m-1609 -39 c-3 -3 -9 2 -12 12
-6 14 -5 15 5 6 7 -7 10 -15 7 -18z m342 -5 c0 -10 61 -69 111 -106 37 -27 73
-78 67 -94 -5 -16 -149 91 -169 125 -24 41 -34 85 -20 85 6 0 11 -4 11 -10z
m97 -6 c-3 -3 -12 -4 -19 -1 -8 3 -5 6 6 6 11 1 17 -2 13 -5z m1034 -29 c-1
-16 -7 -32 -11 -35 -7 -4 -245 -5 -332 -1 -14 1 -18 10 -18 36 l0 35 183 -2
182 -3 -4 -30z m274 5 c3 -6 -1 -7 -9 -4 -18 7 -21 14 -7 14 6 0 13 -4 16 -10z
m-1291 -39 c-2 -3 -12 3 -22 13 -16 17 -16 18 5 5 12 -7 20 -15 17 -18z m2379
-8 c-7 -2 -19 -2 -25 0 -7 3 -2 5 12 5 14 0 19 -2 13 -5z m-679 -60 c-4 -16
-22 -53 -42 -83 l-35 -56 -96 -2 c-53 -2 -118 -5 -143 -7 l-46 -4 1 45 c2 39
6 46 32 58 46 22 123 46 148 47 12 0 38 7 57 14 19 7 56 14 83 14 47 1 47 1
41 -26z m-2041 -3 c9 -11 13 -20 7 -20 -5 0 -14 9 -20 20 -6 11 -9 20 -8 20 2
0 11 -9 21 -20z m228 3 c13 -16 12 -17 -3 -4 -17 13 -22 21 -14 21 2 0 10 -8
17 -17z m589 -8 c8 -9 36 -15 83 -18 42 -2 22 -3 -48 -4 -131 -1 -176 5 -183
25 -6 19 132 17 148 -3z m197 -21 c-3 -3 -12 -4 -19 -1 -8 3 -5 6 6 6 11 1 17
-2 13 -5z m181 -1 c-10 -2 -28 -2 -40 0 -13 2 -5 4 17 4 22 1 32 -1 23 -4z
m202 -27 c0 -2 -17 -16 -37 -31 l-38 -26 35 30 c34 31 40 35 40 27z m-685 -16
c3 -5 -1 -10 -9 -10 -9 0 -16 5 -16 10 0 6 4 10 9 10 6 0 13 -4 16 -10z m1845
-36 c102 -40 109 -44 66 -39 -27 3 -82 5 -122 5 -41 0 -74 4 -74 9 0 5 8 8 18
6 9 -1 11 0 5 2 -7 3 -13 9 -13 14 0 5 -5 9 -11 9 -5 0 -7 -5 -4 -10 4 -7 -8
-10 -34 -8 l-40 3 26 28 c15 15 36 27 47 26 12 0 73 -20 136 -45z m-1385 -44
c3 -5 1 -10 -4 -10 -6 0 -11 5 -11 10 0 6 2 10 4 10 3 0 8 -4 11 -10z m-2625
-13 c0 -7 -15 -18 -32 -25 -30 -10 -31 -10 -13 3 11 8 25 19 30 24 13 13 15
13 15 -2z m3790 3 c0 -5 -5 -10 -11 -10 -5 0 -7 5 -4 10 3 6 8 10 11 10 2 0 4
-4 4 -10z m95 0 c-3 -5 -16 -10 -28 -9 -20 1 -20 2 3 9 14 4 26 8 28 9 2 1 0
-3 -3 -9z m-1255 -20 c0 -5 -5 -10 -11 -10 -5 0 -7 5 -4 10 3 6 8 10 11 10 2
0 4 -4 4 -10z m1620 -16 c0 -8 -41 3 -52 14 -10 10 -6 10 20 1 17 -6 32 -13
32 -15z m-2594 -63 c-15 -24 -36 -11 -36 21 l0 32 21 -21 c12 -11 18 -26 15
-32z m2654 27 c0 -5 -11 -8 -24 -8 -13 0 -31 -3 -39 -6 -8 -3 -17 2 -20 10 -5
11 3 14 39 13 24 -1 44 -5 44 -9z m-1586 -34 c3 -8 2 -12 -4 -9 -6 3 -10 10
-10 16 0 14 7 11 14 -7z m1581 -14 c-3 -5 -16 -10 -28 -10 -18 0 -19 2 -7 10
20 13 43 13 35 0z m-1359 -65 c12 -9 14 -14 6 -15 -7 0 -10 -5 -6 -11 4 -8 0
-8 -15 0 -11 7 -21 18 -21 26 0 19 11 19 36 0z m464 -106 c0 -6 -4 -7 -10 -4
-5 3 -10 11 -10 16 0 6 5 7 10 4 6 -3 10 -11 10 -16z m-1650 -6 c0 -5 -7 -17
-15 -27 -15 -20 -15 -20 -15 0 0 12 3 24 7 27 9 9 23 9 23 0z m-100 -17 c0 -8
-4 -18 -10 -21 -5 -3 -10 3 -10 14 0 12 5 21 10 21 6 0 10 -6 10 -14z m1585
-6 c3 -6 -1 -7 -9 -4 -18 7 -21 14 -7 14 6 0 13 -4 16 -10z m-1641 -45 c-4 -8
-10 -12 -15 -9 -14 8 -10 24 6 24 9 0 12 -6 9 -15z m146 -1 c0 -8 -19 -13 -24
-6 -3 5 1 9 9 9 8 0 15 -2 15 -3z m-261 -76 c10 -16 10 -23 2 -26 -6 -2 -11
-8 -11 -14 0 -5 9 -7 19 -3 11 3 22 1 26 -5 4 -6 -6 -10 -24 -10 -30 0 -54 21
-33 28 14 4 16 32 3 32 -5 0 -11 7 -14 14 -9 22 16 9 32 -16z m2171 6 c0 -2
-9 -4 -21 -4 -11 0 -18 4 -14 10 5 8 35 3 35 -6z m50 -14 c8 -5 11 -10 5 -10
-5 0 -17 5 -25 10 -8 5 -10 10 -5 10 6 0 17 -5 25 -10z m-2100 -66 c0 -9 -49
-54 -58 -54 -4 0 2 7 12 15 11 8 16 15 12 15 -5 0 -3 7 4 15 13 15 30 20 30 9z
m2327 0 c-3 -3 -12 -4 -19 -1 -8 3 -5 6 6 6 11 1 17 -2 13 -5z m-2467 -29 c0
-3 -9 -14 -20 -25 -11 -11 -22 -20 -25 -20 -10 0 -5 26 7 38 12 12 38 17 38 7z
m10 -32 c-11 -17 -11 -17 -6 0 3 10 6 24 7 30 0 9 2 9 5 0 3 -7 0 -20 -6 -30z
m2580 28 c19 -5 62 -14 95 -22 33 -7 69 -19 80 -26 18 -13 18 -14 -10 -7 -16
4 -41 11 -55 17 -14 5 -36 11 -50 13 -32 4 -118 32 -105 33 6 0 26 -3 45 -8z
m-2525 -30 c6 -11 -21 -41 -38 -41 -7 0 -6 4 3 10 8 5 16 14 16 20 3 23 9 27
19 11z m55 -16 c-7 -9 -15 -13 -17 -11 -6 6 20 36 26 30 2 -2 -2 -10 -9 -19z
m2719 -16 c-22 -14 -33 -10 -19 6 7 8 17 12 22 9 6 -4 5 -10 -3 -15z m-2752
-15 c-3 -3 -12 -4 -19 -1 -8 3 -5 6 6 6 11 1 17 -2 13 -5z m-33 -26 c-3 -5
-12 -4 -20 3 -19 16 -18 18 6 12 11 -3 17 -9 14 -15z m-194 -2 c0 -3 -4 -8
-10 -11 -5 -3 -10 -1 -10 4 0 6 5 11 10 11 6 0 10 -2 10 -4z m-1470 -207 c0
-5 4 -7 10 -4 5 3 8 0 5 -7 -6 -17 26 -58 32 -40 8 21 21 13 19 -13 -1 -31 -7
-31 -32 -2 -32 35 -55 77 -44 77 5 0 10 -5 10 -11z m440 -269 c0 -5 -4 -10
-10 -10 -5 0 -10 5 -10 10 0 6 5 10 10 10 6 0 10 -4 10 -10z m-1540 -680 c0
-5 -5 -10 -11 -10 -5 0 -7 5 -4 10 3 6 8 10 11 10 2 0 4 -4 4 -10z m-123 -72
c-3 -7 -5 -2 -5 12 0 14 2 19 5 13 2 -7 2 -19 0 -25z m131 -168 c-5 -30 -14
-62 -19 -70 -6 -10 -7 -5 -2 15 4 17 8 46 8 65 0 19 4 38 10 42 14 10 14 8 3
-52z"/>
<path d="M3060 4770 c0 -5 5 -10 10 -10 6 0 10 5 10 10 0 6 -4 10 -10 10 -5 0
-10 -4 -10 -10z"/>
<path d="M3112 4423 c-20 -23 -23 -35 -20 -95 3 -57 8 -74 29 -96 36 -39 55
-88 40 -106 -8 -9 -8 -21 -2 -39 5 -14 8 -27 5 -29 -2 -3 5 -13 16 -23 20 -18
20 -17 20 13 0 24 4 30 15 26 8 -4 15 -10 15 -15 0 -14 99 -103 138 -123 29
-16 55 -20 134 -19 54 0 98 -3 98 -7 0 -16 30 -18 45 -4 8 9 15 11 15 5 0 -25
103 0 130 31 13 16 66 25 158 28 7 0 10 5 7 10 -8 12 33 82 44 75 5 -2 6 7 3
20 -2 13 -13 27 -23 30 -10 4 -19 15 -19 26 0 10 -8 27 -17 37 -10 10 -29 39
-42 65 -33 66 -111 147 -140 147 -13 0 -49 7 -80 15 -31 8 -72 12 -91 9 -19
-2 -91 -6 -160 -8 -69 -2 -137 -9 -152 -15 -19 -7 -28 -7 -28 0 0 6 -6 6 -19
0 -15 -8 -22 -5 -37 15 -11 13 -28 31 -39 38 -19 12 -23 11 -43 -11z m674
-248 c10 -8 14 -15 8 -15 -5 0 -19 7 -30 15 -10 8 -14 15 -8 15 5 0 19 -7 30
-15z m-146 -3 c0 -5 -13 -7 -30 -4 -16 2 -30 6 -30 8 0 2 14 4 30 4 17 0 30
-4 30 -8z"/>
<path d="M4054 4078 c-4 -6 -2 -14 4 -16 7 -2 12 -26 12 -63 0 -33 4 -59 10
-59 6 0 10 13 10 28 0 15 5 33 11 39 12 12 1 65 -12 57 -5 -3 -9 2 -9 10 0 19
-16 21 -26 4z"/>
<path d="M4037 3929 c-10 -35 -9 -39 8 -39 16 0 18 14 6 44 -7 18 -8 18 -14
-5z"/>
<path d="M2140 3984 l0 -55 53 3 52 3 3 53 3 52 -55 0 -56 0 0 -56z m80 36
c22 -7 19 -8 -16 -9 -39 -1 -41 -2 -36 -27 l5 -27 17 23 c20 27 40 19 40 -15
0 -20 -4 -23 -37 -22 -37 2 -38 3 -36 37 1 19 2 38 2 43 1 9 28 8 61 -3z"/>
<path d="M2277 4014 c-11 -11 -8 -74 3 -74 6 0 11 15 11 33 1 17 3 24 6 15 7
-26 25 -22 21 4 -3 23 -27 35 -41 22z"/>
<path d="M2330 3980 c0 -17 0 -33 0 -37 0 -5 22 -9 50 -10 27 -2 50 2 50 7 0
5 -8 7 -17 3 -17 -6 -17 -5 -1 13 32 37 27 46 -29 50 -53 4 -53 4 -53 -26z
m68 -10 c-9 -14 -14 -16 -20 -7 -13 20 -9 27 12 27 18 0 19 -3 8 -20z m-38 -9
c0 -6 -4 -13 -10 -16 -5 -3 -10 1 -10 9 0 9 5 16 10 16 6 0 10 -4 10 -9z"/>
<path d="M5453 2733 c9 -2 25 -2 35 0 9 3 1 5 -18 5 -19 0 -27 -2 -17 -5z"/>
<path d="M6685 2330 c-10 -11 -15 -20 -11 -20 11 0 39 30 34 36 -3 2 -13 -5
-23 -16z"/>
<path d="M6825 2300 c3 -5 11 -10 16 -10 6 0 7 5 4 10 -3 6 -11 10 -16 10 -6
0 -7 -4 -4 -10z"/>
<path d="M2203 5570 c0 -30 2 -43 4 -27 2 15 2 39 0 55 -2 15 -4 2 -4 -28z"/>
<path d="M2240 5491 c0 -10 19 -25 25 -20 1 2 -3 10 -11 17 -8 7 -14 8 -14 3z"/>
<path d="M2230 5438 c0 -16 0 -31 0 -35 0 -5 6 -8 12 -8 19 0 21 28 4 50 -15
19 -15 19 -16 -7z"/>
<path d="M2780 5420 c0 -5 5 -10 11 -10 5 0 7 5 4 10 -3 6 -8 10 -11 10 -2 0
-4 -4 -4 -10z"/>
<path d="M2977 5390 c-3 -13 -2 -29 3 -34 14 -14 17 -5 10 29 -6 30 -6 30 -13
5z"/>
<path d="M2690 5374 c0 -8 5 -12 10 -9 6 3 10 10 10 16 0 5 -4 9 -10 9 -5 0
-10 -7 -10 -16z"/>
<path d="M2930 5380 c0 -5 5 -10 11 -10 5 0 7 5 4 10 -3 6 -8 10 -11 10 -2 0
-4 -4 -4 -10z"/>
<path d="M3367 5376 c-4 -10 -5 -21 -2 -24 9 -9 17 6 13 25 -3 17 -4 17 -11
-1z"/>
<path d="M2760 5366 c0 -9 5 -16 10 -16 6 0 10 4 10 9 0 6 -4 13 -10 16 -5 3
-10 -1 -10 -9z"/>
<path d="M2850 5371 c0 -6 5 -13 10 -16 6 -3 10 1 10 9 0 9 -4 16 -10 16 -5 0
-10 -4 -10 -9z"/>
<path d="M2822 5358 c2 -6 10 -14 16 -16 7 -2 10 2 6 12 -7 18 -28 22 -22 4z"/>
<path d="M2300 5351 c0 -5 5 -13 10 -16 6 -3 10 -2 10 4 0 5 -4 13 -10 16 -5
3 -10 2 -10 -4z"/>
<path d="M3375 5330 c-3 -5 -1 -10 4 -10 6 0 11 5 11 10 0 6 -2 10 -4 10 -3 0
-8 -4 -11 -10z"/>
<path d="M3596 5305 c-3 -8 -1 -15 3 -15 5 0 11 7 15 15 3 8 1 15 -3 15 -5 0
-11 -7 -15 -15z"/>
<path d="M6752 5248 c-6 -13 -11 -17 -11 -10 -1 6 -8 12 -16 12 -18 0 -19 -12
-3 -28 17 -17 0 -28 -22 -14 -30 18 -46 15 -27 -6 22 -24 22 -38 0 -21 -15 12
-16 12 -10 -3 7 -21 -16 -27 -57 -16 -25 6 -28 5 -23 -12 4 -17 0 -20 -31 -21
-37 0 -37 0 -14 -16 12 -8 22 -22 22 -29 0 -8 9 -19 20 -26 11 -7 20 -18 20
-25 0 -16 -12 -17 -28 -1 -16 16 -23 7 -16 -19 4 -14 17 -24 35 -28 28 -6 28
-7 14 -34 -14 -29 -65 -48 -88 -34 -22 13 -57 12 -57 -3 0 -8 6 -14 13 -14 9
0 8 -3 -2 -9 -16 -10 -6 -31 14 -31 8 0 16 -4 19 -9 10 -15 -6 -43 -20 -37 -8
3 -14 1 -14 -4 0 -6 7 -10 15 -10 9 0 18 -7 21 -15 4 -10 15 -12 35 -8 24 5
28 3 23 -11 -4 -10 -13 -14 -24 -11 -10 3 -21 2 -24 -4 -3 -5 -15 -7 -26 -4
-15 4 -20 0 -20 -15 0 -11 5 -22 12 -24 9 -3 9 -6 0 -12 -7 -4 -12 -2 -12 3 0
6 -4 11 -10 11 -6 0 -6 -9 0 -26 14 -35 13 -44 -5 -44 -8 0 -15 -7 -15 -15 0
-14 -12 -19 -32 -16 -19 3 -5 -21 17 -29 14 -5 25 -15 25 -21 0 -6 -7 -8 -16
-5 -13 5 -14 1 -9 -24 7 -32 -10 -41 -33 -18 -9 9 -12 8 -12 -4 0 -9 -5 -18
-12 -20 -6 -2 -8 -10 -4 -17 5 -7 13 -10 20 -8 6 3 12 -3 12 -12 1 -9 4 -24 9
-33 5 -14 2 -18 -11 -18 -18 -1 -18 -1 -1 -14 16 -13 16 -14 1 -20 -13 -5 -14
-10 -6 -18 6 -6 8 -17 5 -24 -3 -9 2 -14 16 -14 15 0 21 -6 21 -24 0 -13 7
-29 15 -36 20 -17 19 -30 -2 -30 -12 0 -14 -3 -6 -8 6 -4 13 -16 15 -27 2 -14
-2 -20 -15 -18 -12 0 -16 -4 -13 -13 8 -20 -3 -44 -20 -44 -7 0 -11 -6 -8 -13
3 -8 -5 -13 -22 -15 -32 -2 -43 -10 -23 -16 52 -16 54 -17 39 -26 -8 -5 -17
-7 -21 -4 -4 2 -6 -7 -3 -21 2 -14 0 -25 -6 -25 -6 0 -15 -11 -20 -24 -5 -13
-18 -27 -29 -31 -26 -8 -27 -21 -1 -35 28 -15 25 -30 -5 -30 -14 0 -25 5 -25
11 0 6 -7 8 -16 5 -9 -4 -23 -1 -30 5 -12 10 -14 5 -12 -24 3 -29 9 -38 45
-57 22 -12 43 -30 46 -39 2 -11 18 -21 36 -24 28 -6 31 -10 26 -29 -4 -13 -14
-30 -21 -39 -8 -9 -12 -24 -8 -34 5 -13 3 -16 -7 -13 -8 3 -16 16 -19 30 -5
22 -8 24 -37 16 -28 -7 -33 -13 -33 -40 0 -26 2 -29 15 -18 11 9 15 10 15 1 0
-15 25 -41 39 -41 16 0 13 -18 -4 -28 -9 -4 -18 -26 -20 -48 -3 -21 -3 -34 0
-28 4 8 18 6 46 -8 22 -10 37 -22 35 -27 -6 -10 86 -51 117 -52 17 -1 14 -3
-11 -10 -19 -6 -37 -20 -44 -34 -9 -21 -19 -25 -52 -26 -33 0 -37 -2 -20 -9
17 -7 20 -15 16 -41 -3 -22 -1 -30 7 -25 6 4 11 18 11 32 0 24 15 29 78 27 6
-1 12 10 12 23 0 15 6 24 15 24 8 0 15 5 15 10 0 6 11 10 25 10 18 0 25 -5 25
-20 0 -11 5 -20 11 -20 6 0 9 12 7 27 -2 21 -11 29 -43 39 -22 6 -32 12 -22
13 10 1 17 9 17 22 0 16 5 20 28 17 23 -3 27 -8 30 -40 2 -24 8 -38 17 -38 9
0 15 14 17 38 2 23 8 36 16 34 7 -1 15 5 18 13 4 8 13 15 21 15 11 0 14 9 11
33 -3 28 0 33 16 32 13 -1 21 -10 23 -28 2 -15 -1 -27 -7 -27 -7 0 -8 -6 -1
-18 5 -10 13 -50 16 -90 7 -66 6 -72 -11 -73 -11 0 -14 -3 -6 -6 6 -2 12 -16
12 -29 0 -17 -6 -24 -20 -24 -22 0 -26 -10 -10 -26 6 -6 3 -10 -10 -11 -11 -1
-20 4 -20 13 0 8 -7 14 -15 14 -14 0 -45 48 -45 70 0 5 13 10 29 10 22 0 30 5
33 24 3 15 -2 27 -14 35 -24 15 -31 14 -25 -2 4 -10 -2 -13 -19 -9 -21 4 -23
1 -22 -32 1 -20 5 -39 10 -42 14 -9 9 -34 -8 -34 -14 0 -14 -3 -4 -15 7 -9 10
-18 6 -22 -8 -8 -56 -11 -56 -3 0 3 -53 6 -117 6 -65 1 -153 5 -197 9 -49 5
-76 4 -73 -2 4 -6 -13 -8 -41 -6 -37 2 -42 1 -24 -7 12 -5 22 -14 22 -19 0 -5
7 -12 15 -15 14 -5 139 -21 225 -29 20 -2 42 -7 49 -11 7 -5 18 -3 24 3 9 9 4
18 -18 36 -40 32 -18 32 30 0 42 -29 60 -26 24 4 l-24 20 28 1 c16 0 43 -8 59
-17 23 -14 32 -15 35 -5 3 6 11 12 20 12 19 0 48 -29 38 -38 -4 -4 -10 -1 -12
6 -3 6 -9 12 -14 12 -13 0 -11 -48 3 -56 8 -5 9 -2 5 9 -5 13 -1 17 18 17 20
0 25 -5 25 -25 0 -22 -3 -25 -25 -19 -18 5 -25 2 -25 -9 0 -10 -7 -13 -20 -10
-15 4 -18 1 -15 -16 6 -32 -4 -51 -27 -51 -11 0 -16 4 -12 11 3 6 0 15 -7 20
-7 4 -10 11 -6 15 3 4 14 1 23 -7 15 -12 16 -11 9 11 -10 34 -11 35 -38 17
-23 -15 -33 -47 -15 -47 5 0 6 -5 3 -10 -4 -6 -9 -8 -13 -6 -4 2 -47 7 -97 11
-49 4 -127 10 -173 14 -86 7 -96 4 -86 -23 5 -12 21 -16 71 -16 41 0 62 4 58
10 -9 14 72 2 105 -16 24 -13 23 -13 -25 -15 l-50 -2 45 -6 c54 -7 112 -2 105
9 -3 5 5 12 17 16 15 4 25 1 34 -11 11 -14 23 -17 63 -13 38 4 51 1 56 -10 3
-8 12 -12 21 -8 8 3 25 -3 37 -15 21 -19 22 -19 26 -2 6 31 22 43 61 43 34 0
39 -3 45 -29 3 -16 13 -35 21 -42 11 -9 12 -14 3 -19 -15 -10 78 -21 179 -22
45 0 85 -4 88 -9 3 -5 -7 -9 -22 -9 -46 0 -22 -7 49 -14 l67 -7 0 75 c0 71 -1
74 -26 80 -32 8 -29 42 4 39 18 -2 22 2 22 27 0 33 0 33 -52 21 -37 -9 -56 3
-20 12 9 3 0 5 -20 6 -21 0 -41 0 -44 -1 -4 -2 -11 8 -16 21 -13 36 12 68 52
67 30 -1 31 -2 25 -38 l-7 -38 39 0 39 0 2 69 c1 40 -3 73 -9 76 -5 4 -7 15
-4 26 4 12 2 19 -7 19 -65 2 -122 11 -134 21 -10 8 -14 8 -14 0 0 -6 -7 -11
-15 -11 -8 0 -15 9 -15 19 0 11 -4 23 -10 26 -5 3 -10 -3 -10 -14 0 -21 -14
-28 -24 -12 -7 10 -56 -9 -56 -21 0 -5 -5 -8 -11 -8 -6 0 -9 9 -6 20 3 11 1
18 -3 15 -5 -3 -12 0 -16 6 -4 8 -11 4 -19 -11 -12 -22 -12 -22 -14 6 -7 87
-6 99 9 97 10 -2 19 11 27 35 13 40 9 52 -9 34 -13 -13 -38 -16 -38 -4 0 4 4
13 9 21 8 12 14 13 36 3 39 -18 68 -6 62 24 -4 22 -2 23 33 18 37 -6 38 -6 33
22 l-5 29 21 -25 c20 -24 20 -24 14 -2 -4 16 -1 22 10 22 9 0 18 -4 21 -8 3
-5 19 -8 36 -7 36 2 36 1 9 -26 -28 -28 -20 -43 27 -47 49 -4 71 -22 26 -22
-27 0 -32 -4 -32 -23 0 -31 4 -34 40 -29 25 4 28 7 20 22 -7 13 -6 20 3 23 16
5 25 497 8 497 -6 0 -11 -4 -11 -10 0 -5 -5 -10 -12 -10 -6 0 -8 3 -5 7 4 3 1
13 -6 21 -10 13 -8 14 15 9 l27 -7 0 112 c1 78 -3 114 -12 120 -9 6 -9 8 1 8
15 0 17 146 2 155 -5 3 -10 1 -10 -4 0 -6 -9 -11 -20 -11 -21 0 -24 8 -14 34
7 17 34 22 34 6 0 -5 5 -10 10 -10 7 0 10 42 9 115 -1 63 -4 115 -6 115 -2 0
-19 -11 -36 -24 -37 -27 -70 -37 -88 -26 -9 6 -10 12 -2 22 6 7 8 27 6 45 -4
25 -10 32 -25 30 -34 -3 -32 21 4 38 l33 15 -33 -5 c-19 -3 -31 -1 -27 4 3 5
1 12 -5 16 -9 6 22 61 44 77 5 3 2 14 -7 23 -10 9 -17 25 -17 36 0 21 -16 26
-23 7 -3 -8 -6 -6 -6 5 -1 11 -7 17 -18 15 -11 -2 -22 6 -28 20 -8 18 -15 21
-37 16 -48 -10 -31 14 19 29 26 8 49 19 51 26 3 10 0 10 -16 2 -16 -9 -24 -8
-36 5 -9 8 -20 12 -26 9 -12 -8 -13 5 -1 25 14 21 2 33 -17 18 -9 -7 -4 2 11
21 22 27 25 36 16 48 -10 11 -9 20 4 43 12 19 14 31 7 35 -8 5 -7 11 1 21 9
11 9 14 -1 14 -7 0 -10 7 -6 15 3 8 1 15 -4 15 -6 0 -10 -5 -10 -11 0 -8 -5
-7 -16 2 -10 8 -18 9 -22 2 -7 -11 -56 -10 -83 1 -10 5 -19 -1 -27 -16z m98
-18 c0 -5 -4 -10 -10 -10 -5 0 -10 5 -10 10 0 6 5 10 10 10 6 0 10 -4 10 -10z
m-240 -160 c0 -5 -4 -10 -10 -10 -5 0 -10 5 -10 10 0 6 5 10 10 10 6 0 10 -4
10 -10z m50 -28 c0 -4 -9 -13 -20 -20 -17 -10 -20 -10 -20 2 0 8 8 17 18 19 9
3 18 5 20 6 1 0 2 -2 2 -7z m-20 -112 c0 -5 -2 -10 -4 -10 -3 0 -8 5 -11 10
-3 6 -1 10 4 10 6 0 11 -4 11 -10z m-23 -67 c3 -7 -4 -9 -16 -6 -12 3 -18 9
-15 15 7 11 26 6 31 -9z m363 -13 c0 -5 -4 -10 -10 -10 -5 0 -10 5 -10 10 0 6
5 10 10 10 6 0 10 -4 10 -10z m-103 -266 c-3 -3 -12 -4 -19 -1 -8 3 -5 6 6 6
11 1 17 -2 13 -5z m193 -24 c8 -1 3 -6 -13 -12 -15 -5 -25 -13 -22 -18 10 -17
-6 -38 -26 -33 -10 3 -19 9 -19 14 0 5 6 6 14 3 8 -3 14 1 13 8 -1 35 4 46 21
43 9 -2 24 -4 32 -5z m55 0 c3 -5 -1 -10 -9 -10 -9 0 -16 5 -16 10 0 6 4 10 9
10 6 0 13 -4 16 -10z m-238 -6 c-3 -3 -12 -4 -19 -1 -8 3 -5 6 6 6 11 1 17 -2
13 -5z m-2 -34 c3 -5 -1 -10 -10 -10 -9 0 -13 5 -10 10 3 6 8 10 10 10 2 0 7
-4 10 -10z m85 -19 c0 -18 -18 -21 -30 -6 -10 13 -9 15 9 15 11 0 21 -4 21 -9z
m-40 -25 c0 -3 -4 -8 -10 -11 -5 -3 -10 -1 -10 4 0 6 5 11 10 11 6 0 10 -2 10
-4z m68 -14 c19 -21 26 -42 13 -42 -8 0 -41 43 -41 55 0 10 10 5 28 -13z
m-153 -2 c3 -5 -3 -10 -14 -10 -12 0 -21 5 -21 10 0 6 6 10 14 10 8 0 18 -4
21 -10z m263 -39 c2 -23 0 -32 -9 -29 -16 5 -21 36 -7 44 6 4 5 10 -3 16 -11
8 -11 9 1 5 9 -2 16 -18 18 -36z m-201 -33 c-3 -7 -5 -2 -5 12 0 14 2 19 5 13
2 -7 2 -19 0 -25z m163 22 c0 -5 -2 -10 -4 -10 -3 0 -8 5 -11 10 -3 6 -1 10 4
10 6 0 11 -4 11 -10z m-120 -24 c0 -2 -7 -6 -15 -10 -8 -3 -15 -1 -15 4 0 6 7
10 15 10 8 0 15 -2 15 -4z m70 -31 c0 -8 -4 -15 -10 -15 -5 0 -7 7 -4 15 4 8
8 15 10 15 2 0 4 -7 4 -15z m-30 1 c0 -3 -4 -8 -10 -11 -5 -3 -10 -1 -10 4 0
6 5 11 10 11 6 0 10 -2 10 -4z m70 -17 c0 -6 -4 -7 -10 -4 -5 3 -10 11 -10 16
0 6 5 7 10 4 6 -3 10 -11 10 -16z m-510 1 c0 -5 -2 -10 -4 -10 -3 0 -8 5 -11
10 -3 6 -1 10 4 10 6 0 11 -4 11 -10z m10 -40 c30 -9 15 -17 -46 -24 -32 -4
-43 0 -52 15 -11 18 -9 19 30 18 24 -1 54 -4 68 -9z m480 0 c0 -5 -2 -10 -4
-10 -3 0 -8 5 -11 10 -3 6 -1 10 4 10 6 0 11 -4 11 -10z m-110 -60 c0 -5 -2
-10 -4 -10 -3 0 -8 5 -11 10 -3 6 -1 10 4 10 6 0 11 -4 11 -10z m-28 -188
c-18 -2 -30 -7 -27 -13 3 -5 -1 -6 -9 -3 -9 3 -16 10 -16 14 0 11 49 18 70 10
8 -3 0 -6 -18 -8z m118 -3 c0 -4 -8 -5 -17 -2 -16 6 -16 5 -4 -11 10 -12 17
-14 25 -6 13 13 26 13 26 0 0 -5 -7 -10 -15 -10 -8 0 -15 -4 -15 -10 0 -5 -12
-10 -27 -9 -25 0 -26 1 -8 9 18 7 18 8 3 15 -14 5 -15 11 -8 26 10 18 40 17
40 -2z m-60 -3 c0 -3 -4 -8 -10 -11 -5 -3 -10 -1 -10 4 0 6 5 11 10 11 6 0 10
-2 10 -4z m-50 -20 c0 -2 -7 -7 -16 -10 -8 -3 -12 -2 -9 4 6 10 25 14 25 6z
m196 -14 c6 -4 14 -17 18 -29 6 -18 4 -21 -16 -16 -13 3 -28 10 -34 14 -6 5
-14 6 -17 2 -4 -3 -7 0 -7 9 0 27 30 38 56 20z m-701 -42 c3 -5 2 -10 -4 -10
-5 0 -13 5 -16 10 -3 6 -2 10 4 10 5 0 13 -4 16 -10z m-65 -50 c0 -5 -2 -10
-4 -10 -3 0 -8 5 -11 10 -3 6 -1 10 4 10 6 0 11 -4 11 -10z m412 -22 c-7 -7
-12 -8 -12 -2 0 14 12 26 19 19 2 -3 -1 -11 -7 -17z m-32 -2 c0 -11 -19 -15
-25 -6 -3 5 1 10 9 10 9 0 16 -2 16 -4z m450 -37 c0 -6 -7 -9 -15 -6 -17 7
-31 -11 -27 -34 2 -11 -5 -16 -21 -16 -23 0 -23 0 7 33 29 34 56 44 56 23z
m-185 -9 c3 -6 -1 -7 -9 -4 -18 7 -21 14 -7 14 6 0 13 -4 16 -10z m-22 -25
c-3 -9 -8 -14 -10 -11 -3 3 -2 9 2 15 9 16 15 13 8 -4z m-96 -21 c-3 -3 -12
-4 -19 -1 -8 3 -5 6 6 6 11 1 17 -2 13 -5z m99 -70 c-4 -9 -9 -15 -11 -12 -3
3 -3 13 1 22 4 9 9 15 11 12 3 -3 3 -13 -1 -22z m-491 -4 c3 -5 1 -10 -4 -10
-6 0 -11 5 -11 10 0 6 2 10 4 10 3 0 8 -4 11 -10z m499 -47 c20 -6 25 -11 15
-15 -22 -9 -59 9 -59 29 0 11 3 14 8 7 4 -6 20 -15 36 -21z m-579 -42 c-12
-11 -24 16 -18 39 l7 25 7 -30 c5 -16 6 -31 4 -34z m-10 -139 c-3 -3 -11 0
-18 7 -9 10 -8 11 6 5 10 -3 15 -9 12 -12z m741 -49 c-10 -10 -19 5 -10 18 6
11 8 11 12 0 2 -7 1 -15 -2 -18z m-26 -193 c0 -5 -2 -10 -4 -10 -3 0 -8 5 -11
10 -3 6 -1 10 4 10 6 0 11 -4 11 -10z m-280 -10 c0 -5 -2 -10 -4 -10 -3 0 -8
5 -11 10 -3 6 -1 10 4 10 6 0 11 -4 11 -10z m310 -46 c0 -20 -57 -18 -78 3
-16 15 -14 16 21 10 22 -3 37 -2 37 4 0 6 5 7 10 4 6 -3 10 -13 10 -21z m-923
10 c-3 -3 -12 -4 -19 -1 -8 3 -5 6 6 6 11 1 17 -2 13 -5z m538 -4 c3 -5 1 -10
-4 -10 -6 0 -11 5 -11 10 0 6 2 10 4 10 3 0 8 -4 11 -10z m-405 -21 c0 -14
-27 -16 -44 -3 -17 12 -16 13 12 11 18 -1 32 -5 32 -8z m683 4 c-7 -2 -19 -2
-25 0 -7 3 -2 5 12 5 14 0 19 -2 13 -5z m-273 -39 c0 -31 -2 -35 -15 -24 -12
10 -14 30 -6 58 1 1 6 2 11 2 6 0 10 -16 10 -36z m165 16 c-4 -6 5 -10 19 -10
36 0 79 -39 65 -57 -6 -7 -23 -13 -38 -13 -43 0 -71 -11 -72 -29 0 -9 -6 -3
-14 14 -16 37 -8 43 56 41 28 -1 53 2 56 7 3 5 0 7 -8 5 -8 -3 -21 -2 -29 2
-8 4 -42 4 -75 -1 -33 -4 -61 -6 -63 -4 -2 2 13 15 35 29 38 25 80 35 68 16z
m-70 -80 c3 -5 -3 -10 -14 -10 -11 0 -23 5 -26 10 -3 6 3 10 14 10 11 0 23 -4
26 -10z m-85 -37 c0 -5 11 -21 25 -37 14 -16 25 -30 25 -31 0 -4 -91 11 -91
15 -2 12 25 60 33 60 4 0 8 -3 8 -7z m245 -34 c0 -7 -8 -15 -17 -17 -18 -3
-25 18 -11 32 10 10 28 1 28 -15z m-782 4 c-13 -2 -35 -2 -50 0 -16 2 -5 4 22
4 28 0 40 -2 28 -4z m687 -3 c11 -7 3 -10 -30 -10 -33 0 -41 3 -30 10 8 5 22
10 30 10 8 0 22 -5 30 -10z m-340 -30 c0 -5 -11 -10 -24 -10 -14 0 -28 5 -31
10 -4 6 7 10 24 10 17 0 31 -4 31 -10z m504 -21 c8 -8 -3 -10 -38 -7 -27 2
-51 8 -53 15 -5 14 76 8 91 -8z m-89 -60 c20 -12 35 -22 33 -23 -2 -1 -26 0
-55 2 -48 4 -51 5 -40 23 15 24 18 24 62 -2z"/>
<path d="M7086 4001 c-3 -5 1 -11 9 -14 9 -4 12 -1 8 9 -6 16 -10 17 -17 5z"/>
<path d="M7085 5240 c7 -11 45 -20 45 -10 0 4 -11 10 -25 12 -13 3 -22 2 -20
-2z"/>
<path d="M7140 5207 c0 -14 19 -37 32 -37 16 0 7 30 -12 40 -15 8 -20 8 -20
-3z"/>
<path d="M6550 5180 c0 -5 5 -10 11 -10 5 0 7 5 4 10 -3 6 -8 10 -11 10 -2 0
-4 -4 -4 -10z"/>
<path d="M7122 5052 c-1 -24 0 -25 9 -9 7 11 7 23 2 28 -5 5 -9 -3 -11 -19z"/>
<path d="M7158 5067 c9 -10 6 -17 -8 -30 -11 -9 -27 -17 -35 -17 -17 0 -20
-16 -6 -25 6 -3 6 -17 -1 -35 -8 -23 -7 -34 3 -47 13 -15 11 -16 -16 -10 l-30
7 25 -20 c14 -11 30 -24 37 -30 9 -8 9 -16 -2 -37 -11 -21 -12 -29 -2 -35 9
-6 8 -8 -2 -8 -12 0 -12 -2 1 -12 8 -7 18 -20 21 -29 4 -13 1 -16 -16 -11 -22
5 -22 4 2 -22 14 -14 20 -26 14 -26 -6 0 -14 6 -16 13 -4 8 -6 7 -6 -3 -1 -16
32 -50 49 -50 6 0 10 31 10 72 0 52 -4 76 -17 90 -15 17 -15 18 1 18 16 0 17
9 12 83 -3 45 -5 89 -6 97 0 8 2 30 6 48 5 26 3 32 -11 32 -13 0 -15 -3 -7
-13z m-13 -145 c-3 -3 -11 0 -18 7 -9 10 -8 11 6 5 10 -3 15 -9 12 -12z"/>
<path d="M2040 5013 c0 -15 45 -78 58 -80 18 -4 15 7 -14 49 -25 35 -44 49
-44 31z"/>
<path d="M455 4650 c-3 -5 1 -10 9 -10 9 0 16 5 16 10 0 6 -4 10 -9 10 -6 0
-13 -4 -16 -10z"/>
<path d="M480 4570 c0 -11 7 -20 15 -20 8 0 15 9 15 20 0 11 -7 20 -15 20 -8
0 -15 -9 -15 -20z"/>
<path d="M468 4528 c-25 -20 -27 -41 -6 -71 16 -22 23 -26 34 -16 11 9 19 8
35 -7 12 -11 25 -28 29 -38 7 -19 8 -19 34 7 28 28 46 35 46 17 0 -22 28 -8
33 16 3 18 -1 29 -14 37 -11 7 -19 18 -19 25 0 9 -5 10 -19 2 -25 -13 -61 -13
-61 0 0 6 -9 10 -20 10 -11 0 -23 7 -26 15 -7 18 -25 19 -46 3z"/>
<path d="M1792 4054 c4 -21 22 -23 26 -1 2 10 -3 17 -13 17 -10 0 -15 -6 -13
-16z"/>
<path d="M1730 3990 c0 -5 7 -10 15 -10 8 0 15 5 15 10 0 6 -7 10 -15 10 -8 0
-15 -4 -15 -10z"/>
<path d="M1800 3972 c0 -14 36 -43 43 -35 4 3 7 13 7 21 0 9 -3 12 -6 9 -4 -3
-15 -2 -25 4 -11 5 -19 6 -19 1z"/>
<path d="M1548 3813 c7 -3 16 -2 19 1 4 3 -2 6 -13 5 -11 0 -14 -3 -6 -6z"/>
<path d="M6080 3766 c0 -8 5 -18 10 -21 6 -3 10 3 10 14 0 12 -4 21 -10 21 -5
0 -10 -6 -10 -14z"/>
<path d="M1670 3752 c0 -6 -8 -12 -17 -15 -10 -2 -3 -4 15 -4 18 0 30 3 25 6
-4 3 -11 10 -15 15 -5 5 -8 5 -8 -2z"/>
<path d="M5063 3684 c-8 -4 -10 -16 -6 -35 3 -19 1 -29 -6 -29 -19 0 -2 -20
25 -31 18 -6 31 -5 49 7 29 19 34 40 5 22 -14 -9 -23 -9 -30 -2 -16 16 -1 44
22 44 17 0 18 3 8 15 -12 15 -43 18 -67 9z m26 -31 c0 -5 -4 -17 -9 -28 -8
-18 -9 -17 -9 8 -1 15 4 27 9 27 6 0 10 -3 9 -7z"/>
<path d="M6127 3683 c-20 -2 -35 -8 -33 -12 7 -10 76 -1 76 10 0 5 -1 8 -2 7
-2 -1 -20 -3 -41 -5z"/>
<path d="M6180 3680 c0 -5 5 -10 11 -10 5 0 7 5 4 10 -3 6 -8 10 -11 10 -2 0
-4 -4 -4 -10z"/>
<path d="M4360 3595 c0 -14 -4 -24 -9 -21 -5 3 -12 -5 -15 -19 -4 -14 -13 -25
-20 -25 -19 0 -46 -28 -46 -47 0 -12 9 -8 37 13 l38 29 -22 -38 c-12 -20 -18
-37 -14 -37 20 0 76 156 60 166 -5 3 -9 -7 -9 -21z"/>
<path d="M5740 3578 c0 -39 12 -49 45 -38 l30 10 -28 -4 c-31 -4 -45 10 -28
27 15 15 14 27 -4 27 -9 0 -15 -9 -15 -22z"/>
<path d="M5595 3570 c-10 -11 -16 -23 -12 -26 3 -3 10 4 17 15 6 12 16 18 22
15 7 -4 8 -3 4 4 -9 16 -10 15 -31 -8z"/>
<path d="M5030 3523 l1 -48 26 43 c28 47 41 45 64 -11 l14 -32 6 40 c4 22 6
41 5 41 0 1 -27 5 -58 8 l-58 7 0 -48z"/>
<path d="M5438 3563 c6 -2 18 -2 25 0 6 3 1 5 -13 5 -14 0 -19 -2 -12 -5z"/>
<path d="M5305 3550 c-3 -5 -1 -10 4 -10 6 0 11 5 11 10 0 6 -2 10 -4 10 -3 0
-8 -4 -11 -10z"/>
<path d="M5388 3553 c6 -2 18 -2 25 0 6 3 1 5 -13 5 -14 0 -19 -2 -12 -5z"/>
<path d="M5179 3538 c-21 -5 -19 -6 11 -8 19 -1 41 -1 49 0 9 1 12 -5 8 -19
-3 -12 -1 -21 3 -21 5 0 10 10 12 23 2 12 9 21 16 20 6 -2 12 2 12 7 0 11 -70
10 -111 -2z"/>
<path d="M5445 3540 c-3 -5 1 -10 9 -10 9 0 16 5 16 10 0 6 -4 10 -9 10 -6 0
-13 -4 -16 -10z"/>
<path d="M5337 3533 c-29 -8 -10 -20 24 -15 22 3 27 7 18 13 -8 5 -16 8 -19 8
-3 -1 -13 -3 -23 -6z"/>
<path d="M6095 3520 c-3 -6 1 -7 9 -4 18 7 21 14 7 14 -6 0 -13 -4 -16 -10z"/>
<path d="M5080 3505 c0 -8 2 -15 4 -15 2 0 6 7 10 15 3 8 1 15 -4 15 -6 0 -10
-7 -10 -15z"/>
<path d="M5787 3498 c6 -7 13 -20 16 -28 3 -9 6 -3 6 13 1 19 -4 27 -15 27
-12 0 -14 -4 -7 -12z"/>
<path d="M6170 3491 c0 -5 -17 -13 -37 -19 l-38 -10 47 -1 c41 -1 46 1 41 19
-5 21 -13 27 -13 11z"/>
<path d="M5440 3475 c-11 -14 -10 -14 11 -7 13 5 27 9 31 8 3 0 10 2 14 7 4 4
-4 7 -18 7 -14 0 -31 -7 -38 -15z"/>
<path d="M5740 3480 c0 -5 5 -10 10 -10 6 0 10 5 10 10 0 6 -4 10 -10 10 -5 0
-10 -4 -10 -10z"/>
<path d="M6953 3483 c-19 -7 -16 -53 2 -53 8 0 15 7 15 15 0 8 7 15 15 15 8 0
15 7 15 15 0 15 -22 19 -47 8z"/>
<path d="M7020 3460 c0 -27 3 -30 30 -30 27 0 30 3 30 30 0 27 -3 30 -30 30
-27 0 -30 -3 -30 -30z"/>
<path d="M6863 3468 c5 -16 29 -17 40 -3 5 5 5 0 2 -12 -4 -14 -2 -23 4 -23 6
0 11 11 11 25 0 21 -5 25 -31 25 -20 0 -29 -4 -26 -12z"/>
<path d="M5210 3460 c0 -5 7 -7 15 -4 8 4 15 8 15 10 0 2 -7 4 -15 4 -8 0 -15
-4 -15 -10z"/>
<path d="M5246 3435 c4 -8 8 -15 10 -15 2 0 4 7 4 15 0 8 -4 15 -10 15 -5 0
-7 -7 -4 -15z"/>
<path d="M6860 3438 c0 -4 7 -8 15 -8 8 0 15 4 15 8 0 5 -7 9 -15 9 -8 0 -15
-4 -15 -9z"/>
<path d="M4826 3433 c-11 -11 -6 -23 9 -23 8 0 15 4 15 9 0 13 -16 22 -24 14z"/>
<path d="M4280 3420 c-9 -6 -10 -10 -3 -10 6 0 15 5 18 10 8 12 4 12 -15 0z"/>
<path d="M5743 3423 c-18 -6 -16 -33 1 -33 19 0 31 19 20 30 -5 4 -15 5 -21 3z"/>
<path d="M5790 3420 c-9 -6 -10 -10 -3 -10 6 0 15 5 18 10 8 12 4 12 -15 0z"/>
<path d="M4886 3408 c3 -4 -2 -8 -10 -8 -10 0 -16 -9 -16 -22 0 -29 -15 -54
-24 -40 -3 6 -2 13 4 17 15 9 12 25 -6 25 -8 0 -13 -4 -9 -9 3 -6 0 -13 -8
-18 -7 -4 -13 -19 -12 -33 0 -19 -5 -24 -18 -22 -17 3 -17 2 -1 -17 10 -11 21
-18 26 -15 4 3 8 0 8 -6 0 -7 7 -10 15 -6 8 3 15 1 15 -4 0 -6 -6 -10 -12 -10
-9 0 -8 -4 2 -10 23 -15 27 -12 28 21 1 43 8 46 43 20 36 -27 82 -30 107 -8
10 10 24 17 30 17 7 0 12 9 12 21 0 18 -4 20 -26 15 -15 -4 -23 -3 -20 3 3 5
3 16 0 25 -5 14 -8 14 -29 0 -18 -12 -24 -12 -28 -2 -4 8 -6 7 -6 -4 -1 -10 6
-18 15 -18 14 0 14 -3 4 -15 -8 -9 -8 -15 -2 -15 6 0 13 6 15 13 4 9 7 9 15
-1 5 -7 16 -10 25 -6 23 9 21 -3 -2 -16 -21 -11 -76 3 -68 17 2 5 -4 16 -14
25 -14 13 -18 14 -23 3 -3 -8 -1 -17 4 -20 6 -4 10 -12 10 -18 0 -8 -3 -7 -9
2 -11 17 -67 17 -87 0 -8 -6 -17 -9 -21 -5 -3 3 -1 6 5 6 6 0 9 9 7 19 -3 17
0 18 26 11 19 -6 29 -5 29 2 0 6 3 8 7 5 3 -4 12 2 20 13 8 11 21 20 29 20 8
0 14 4 14 9 0 5 9 13 21 16 14 5 18 10 11 17 -6 6 -17 6 -30 -1 -28 -15 -42
-14 -42 2 0 8 -7 14 -15 14 -8 0 -12 -4 -9 -9z m14 -42 c0 -2 -7 -9 -15 -16
-13 -11 -14 -10 -9 4 5 14 24 23 24 12z m110 -36 c0 -5 -4 -10 -10 -10 -5 0
-10 5 -10 10 0 6 5 10 10 10 6 0 10 -4 10 -10z"/>
<path d="M4920 3410 c0 -5 5 -10 11 -10 5 0 7 5 4 10 -3 6 -8 10 -11 10 -2 0
-4 -4 -4 -10z"/>
<path d="M5608 3413 c7 -3 16 -2 19 1 4 3 -2 6 -13 5 -11 0 -14 -3 -6 -6z"/>
<path d="M5210 3395 c0 -8 4 -15 9 -15 5 0 14 7 21 15 10 13 9 15 -9 15 -12 0
-21 -6 -21 -15z"/>
<path d="M6375 3400 c-30 -8 -30 -8 8 -9 23 -1 36 3 32 9 -3 6 -7 9 -8 9 -1
-1 -15 -5 -32 -9z"/>
<path d="M4723 3393 c9 -2 23 -2 30 0 6 3 -1 5 -18 5 -16 0 -22 -2 -12 -5z"/>
<path d="M5097 3389 c6 -6 9 -19 6 -28 -3 -10 0 -9 8 4 12 19 12 19 20 0 6
-17 8 -16 8 8 1 23 -3 27 -26 27 -20 0 -24 -3 -16 -11z"/>
<path d="M4247 3379 c7 -7 15 -10 18 -7 3 3 -2 9 -12 12 -14 6 -15 5 -6 -5z"/>
<path d="M5230 3360 c0 -5 5 -10 10 -10 6 0 10 5 10 10 0 6 -4 10 -10 10 -5 0
-10 -4 -10 -10z"/>
<path d="M5100 3326 c0 -9 8 -16 20 -16 11 0 20 5 20 12 0 6 -3 8 -7 5 -3 -4
-12 -2 -20 4 -10 9 -13 8 -13 -5z"/>
<path d="M5211 3308 c0 -30 1 -31 9 -10 5 12 14 22 20 22 5 0 10 5 10 10 0 6
-9 10 -20 10 -16 0 -20 -6 -19 -32z"/>
<path d="M5780 3330 c20 -13 33 -13 25 0 -3 6 -14 10 -23 10 -15 0 -15 -2 -2
-10z"/>
<path d="M4391 3314 c0 -11 3 -14 6 -6 3 7 2 16 -1 19 -3 4 -6 -2 -5 -13z"/>
<path d="M4460 3314 c0 -9 5 -14 12 -12 18 6 21 28 4 28 -9 0 -16 -7 -16 -16z"/>
<path d="M4558 3313 c7 -3 16 -2 19 1 4 3 -2 6 -13 5 -11 0 -14 -3 -6 -6z"/>
<path d="M4620 3310 c0 -5 5 -10 10 -10 6 0 10 5 10 10 0 6 -4 10 -10 10 -5 0
-10 -4 -10 -10z"/>
<path d="M5738 3303 c7 -3 16 -2 19 1 4 3 -2 6 -13 5 -11 0 -14 -3 -6 -6z"/>
<path d="M6543 3303 c9 -2 23 -2 30 0 6 3 -1 5 -18 5 -16 0 -22 -2 -12 -5z"/>
<path d="M4280 3287 c0 -10 18 -14 62 -16 55 -2 60 0 48 13 -15 19 -50 21 -50
4 0 -9 -3 -9 -12 0 -16 16 -48 15 -48 -1z"/>
<path d="M4537 3283 c-13 -12 -7 -23 14 -23 11 0 17 5 14 10 -4 6 6 10 22 9
15 0 22 -3 16 -6 -24 -9 -13 -18 27 -21 41 -3 49 5 28 26 -13 13 -110 17 -121
5z"/>
<path d="M5616 3281 c-4 -5 -2 -12 3 -15 5 -4 12 -2 15 3 4 5 2 12 -3 15 -5 4
-12 2 -15 -3z"/>
<path d="M4473 3258 c2 -7 -5 -18 -17 -25 -19 -11 -16 -12 27 -13 51 0 58 7
29 30 -24 20 -45 24 -39 8z"/>
<path d="M5076 3248 c-3 -13 -6 -49 -6 -81 0 -49 2 -56 14 -45 10 10 11 15 2
21 -6 5 4 6 24 3 49 -7 174 -20 180 -19 3 1 14 5 25 8 16 6 17 5 5 -4 -13 -9
-13 -11 2 -11 9 0 19 -10 21 -22 3 -17 4 -16 2 4 -1 23 1 25 16 17 10 -5 34
-9 53 -9 23 0 39 -6 46 -17 9 -15 10 -12 5 13 -8 40 14 51 46 23 12 -10 24
-19 26 -19 1 0 3 15 3 34 0 24 -5 36 -17 39 -17 4 -17 5 0 6 18 1 25 41 6 41
-15 0 -39 -26 -32 -34 4 -3 1 -6 -5 -6 -6 0 -14 11 -18 25 -7 30 -24 33 -24 6
0 -11 -4 -23 -10 -26 -19 -12 -10 -25 18 -25 21 0 24 -2 12 -10 -8 -5 -24 -10
-34 -10 -10 0 -25 -8 -32 -17 -10 -15 -15 -16 -25 -5 -11 10 -10 12 4 12 9 0
17 5 17 11 0 5 -5 7 -10 4 -21 -13 -70 6 -76 30 -8 32 -24 36 -80 19 -26 -8
-59 -14 -73 -14 -20 0 -23 -2 -11 -10 11 -7 4 -10 -28 -10 l-42 0 2 38 c3 36
5 37 48 42 39 4 42 6 20 12 -45 14 -67 9 -74 -14z m224 -58 c0 -5 -2 -10 -4
-10 -3 0 -8 5 -11 10 -3 6 -1 10 4 10 6 0 11 -4 11 -10z m-77 -25 c4 -8 2 -17
-3 -20 -6 -4 -10 -4 -10 -1 0 2 -3 11 -6 20 -3 9 -2 16 4 16 5 0 12 -7 15 -15z
m67 -3 c0 -13 -12 -22 -22 -16 -10 6 -1 24 13 24 5 0 9 -4 9 -8z"/>
<path d="M5228 3263 c7 -3 16 -2 19 1 4 3 -2 6 -13 5 -11 0 -14 -3 -6 -6z"/>
<path d="M5721 3259 c-23 -9 -24 -10 -5 -24 18 -14 17 -15 -8 -9 -18 4 -28 2
-28 -5 0 -6 4 -11 9 -11 12 0 156 -19 199 -26 28 -4 33 -9 30 -29 -2 -13 1
-23 7 -22 5 1 8 12 7 25 -3 20 1 22 37 22 23 0 43 6 48 13 4 8 17 19 27 24 16
9 10 10 -27 6 -31 -4 -47 -2 -47 6 0 6 5 11 11 11 5 0 7 5 4 10 -3 6 -25 10
-48 9 -23 0 -35 -3 -27 -6 8 -3 19 -10 25 -15 5 -5 19 -15 29 -22 18 -12 18
-13 -3 -19 -17 -4 -21 -2 -17 9 4 10 -2 14 -22 14 -21 0 -24 2 -12 10 13 8 12
10 -2 10 -10 0 -18 5 -18 10 0 6 -11 10 -25 10 -22 0 -30 -9 -26 -32 0 -5 -16
-7 -36 -7 -31 2 -33 3 -10 6 28 4 38 23 12 23 -8 0 -15 5 -15 10 0 12 -37 12
-69 -1z m166 -44 c0 -8 -2 -15 -4 -15 -3 0 -11 7 -19 15 -14 13 -13 15 4 15
10 0 19 -7 19 -15z"/>
<path d="M4395 3250 c-7 -11 19 -20 34 -10 9 5 7 9 -8 13 -12 3 -23 2 -26 -3z"/>
<path d="M5595 3250 c-3 -5 -1 -10 4 -10 6 0 11 5 11 10 0 6 -2 10 -4 10 -3 0
-8 -4 -11 -10z"/>
<path d="M6410 3250 c0 -5 5 -10 11 -10 5 0 7 5 4 10 -3 6 -8 10 -11 10 -2 0
-4 -4 -4 -10z"/>
<path d="M4715 3240 c3 -5 4 -10 1 -10 -2 0 -12 -3 -22 -7 -12 -4 -15 -3 -10
5 8 14 -42 15 -84 3 -24 -7 -24 -8 10 -16 23 -5 35 -4 38 4 2 6 8 11 14 11 6
0 7 -7 4 -16 -5 -12 -2 -15 12 -12 12 3 24 -2 32 -15 12 -19 13 -20 25 -4 10
14 10 23 1 42 -6 14 -15 25 -19 25 -5 0 -5 -4 -2 -10z"/>
<path d="M5312 3241 c-10 -6 -8 -10 10 -14 41 -12 54 -8 32 8 -22 17 -25 17
-42 6z"/>
<path d="M5380 3240 c14 -4 19 -8 11 -9 -8 -1 -12 -4 -8 -7 3 -3 15 -3 28 1
17 6 19 9 8 16 -8 5 -25 8 -39 8 l-25 -1 25 -8z"/>
<path d="M6007 3239 c7 -7 15 -10 18 -7 3 3 -2 9 -12 12 -14 6 -15 5 -6 -5z"/>
<path d="M4956 3232 c-3 -6 -1 -14 5 -17 15 -10 25 3 12 16 -7 7 -13 7 -17 1z"/>
<path d="M5147 3233 c14 -3 20 -9 16 -19 -3 -9 2 -14 16 -14 19 0 20 2 9 20
-8 12 -23 19 -38 19 -23 -2 -23 -2 -3 -6z"/>
<path d="M5190 3230 c0 -5 14 -10 32 -10 35 0 30 12 -7 17 -14 2 -25 -1 -25
-7z"/>
<path d="M5605 3233 c-46 -10 -49 -13 -30 -27 10 -7 15 -18 11 -24 -3 -6 -2
-13 4 -17 6 -4 10 5 10 19 0 14 4 26 9 26 5 0 11 7 15 15 3 8 4 14 3 14 -1 -1
-11 -3 -22 -6z"/>
<path d="M4913 3211 c-8 -30 -54 -37 -74 -12 -24 29 -43 27 -35 -4 4 -14 2
-25 -4 -25 -5 0 -10 -7 -10 -15 0 -24 69 -20 91 7 l19 21 0 -22 c0 -33 24 -20
27 14 1 15 4 34 7 42 3 7 1 13 -5 13 -6 0 -13 -9 -16 -19z"/>
<path d="M5030 3220 c0 -5 7 -10 15 -10 8 0 15 5 15 10 0 6 -7 10 -15 10 -8 0
-15 -4 -15 -10z"/>
<path d="M4183 3210 c16 -5 38 -5 50 0 17 7 10 9 -28 9 -43 -1 -46 -2 -22 -9z"/>
<path d="M5010 3208 c0 -9 5 -20 10 -23 15 -9 2 -25 -15 -18 -9 3 -15 -1 -15
-9 0 -10 10 -13 31 -12 17 1 32 4 35 6 2 3 -7 20 -21 38 -16 22 -25 28 -25 18z"/>
<path d="M4991 3194 c0 -11 3 -14 6 -6 3 7 2 16 -1 19 -3 4 -6 -2 -5 -13z"/>
<path d="M4316 3187 c3 -10 9 -15 12 -12 3 3 0 11 -7 18 -10 9 -11 8 -5 -6z"/>
<path d="M5615 3190 c-3 -5 1 -10 9 -10 9 0 16 5 16 10 0 6 -4 10 -9 10 -6 0
-13 -4 -16 -10z"/>
<path d="M5741 3153 c-1 -15 -9 -25 -27 -29 -34 -9 -105 2 -114 16 -5 8 -10 9
-14 2 -4 -6 -14 -8 -24 -5 -13 4 -14 3 -6 -6 6 -7 40 -15 75 -18 35 -3 73 -12
84 -20 18 -12 16 -13 -25 -9 -25 3 -37 3 -27 0 27 -8 20 -24 -10 -24 -32 0
-47 8 -56 30 -4 8 -6 0 -4 -17 3 -30 1 -33 -22 -33 -20 -1 -23 -3 -10 -10 8
-5 87 -11 175 -15 87 -3 176 -11 197 -17 29 -9 43 -9 57 0 15 9 27 8 54 -3 42
-18 76 -19 76 -4 0 6 -7 9 -15 5 -8 -3 -19 2 -24 12 -7 11 -11 12 -11 4 0 -7
-5 -10 -11 -7 -18 12 -4 27 40 45 40 15 42 18 26 33 -22 23 -61 21 -84 -2 -11
-11 -32 -21 -48 -24 l-28 -4 28 -2 c16 0 25 -5 22 -11 -7 -12 -66 -1 -83 17
-7 7 -21 13 -30 12 -15 0 -14 -1 1 -8 33 -12 -5 -33 -55 -29 -40 3 -43 5 -44
35 l-2 32 107 -5 c72 -3 99 -1 84 5 -11 5 -55 10 -96 9 -89 0 -144 17 -150 46
-4 20 -4 20 -6 -1z m369 -88 c0 -2 -7 -5 -15 -9 -9 -3 -15 0 -15 9 0 9 6 12
15 9 8 -4 15 -7 15 -9z m-46 -3 c3 -5 -1 -9 -9 -9 -8 0 -12 4 -9 9 3 4 7 8 9
8 2 0 6 -4 9 -8z m-293 -25 c-10 -9 -11 -8 -5 6 3 10 9 15 12 12 3 -3 0 -11
-7 -18z"/>
<path d="M4748 3153 c7 -3 16 -2 19 1 4 3 -2 6 -13 5 -11 0 -14 -3 -6 -6z"/>
<path d="M5618 3153 c7 -3 16 -2 19 1 4 3 -2 6 -13 5 -11 0 -14 -3 -6 -6z"/>
<path d="M5808 3153 c7 -3 16 -2 19 1 4 3 -2 6 -13 5 -11 0 -14 -3 -6 -6z"/>
<path d="M6535 3150 c3 -5 11 -10 16 -10 6 0 7 5 4 10 -3 6 -11 10 -16 10 -6
0 -7 -4 -4 -10z"/>
<path d="M6131 3134 c0 -11 3 -14 6 -6 3 7 2 16 -1 19 -3 4 -6 -2 -5 -13z"/>
<path d="M5978 3133 c7 -3 16 -2 19 1 4 3 -2 6 -13 5 -11 0 -14 -3 -6 -6z"/>
<path d="M7056 3125 c-17 -13 -18 -15 -2 -21 20 -8 29 -1 24 20 -3 13 -6 13
-22 1z"/>
<path d="M6370 3104 l0 -26 -107 5 -108 5 103 -11 c71 -8 106 -17 112 -27 7
-11 10 -1 10 33 0 26 -2 47 -5 47 -3 0 -5 -12 -5 -26z"/>
<path d="M6408 3063 c12 -2 30 -2 40 0 9 3 -1 5 -23 4 -22 0 -30 -2 -17 -4z"/>
<path d="M4190 2986 c0 -8 -3 -23 -6 -33 -5 -12 -4 -15 3 -8 16 15 26 55 14
55 -6 0 -11 -6 -11 -14z"/>
<path d="M6122 2910 c0 -19 2 -27 5 -17 2 9 2 25 0 35 -3 9 -5 1 -5 -18z"/>
<path d="M6652 2900 c0 -19 2 -27 5 -17 2 9 2 25 0 35 -3 9 -5 1 -5 -18z"/>
<path d="M4530 2901 c0 -12 29 -23 41 -15 18 10 9 24 -16 24 -14 0 -25 -4 -25
-9z"/>
<path d="M5865 2860 c3 -5 11 -10 16 -10 6 0 7 5 4 10 -3 6 -11 10 -16 10 -6
0 -7 -4 -4 -10z"/>
<path d="M7003 2775 c0 -33 2 -45 4 -27 2 18 2 45 0 60 -2 15 -4 0 -4 -33z"/>
<path d="M6300 2780 c0 -5 5 -10 10 -10 6 0 10 5 10 10 0 6 -4 10 -10 10 -5 0
-10 -4 -10 -10z"/>
<path d="M4495 2770 c11 -5 27 -9 35 -9 13 -1 13 0 0 9 -8 5 -24 9 -35 9 l-20
0 20 -9z"/>
<path d="M6480 2760 c0 -5 5 -10 10 -10 6 0 10 5 10 10 0 6 -4 10 -10 10 -5 0
-10 -4 -10 -10z"/>
<path d="M6538 2753 c7 -3 16 -2 19 1 4 3 -2 6 -13 5 -11 0 -14 -3 -6 -6z"/>
<path d="M6830 2699 c0 -5 5 -7 10 -4 6 3 10 8 10 11 0 2 -4 4 -10 4 -5 0 -10
-5 -10 -11z"/>
<path d="M7000 2665 c14 -8 48 -14 75 -14 l50 1 -65 13 c-83 17 -91 17 -60 0z"/>
<path d="M6618 2653 c7 -3 16 -2 19 1 4 3 -2 6 -13 5 -11 0 -14 -3 -6 -6z"/>
<path d="M7150 2640 c20 -13 33 -13 25 0 -3 6 -14 10 -23 10 -15 0 -15 -2 -2
-10z"/>
<path d="M4750 2344 c0 -8 5 -12 10 -9 6 4 8 11 5 16 -9 14 -15 11 -15 -7z"/>
<path d="M4760 2280 c0 -5 5 -10 11 -10 5 0 7 5 4 10 -3 6 -8 10 -11 10 -2 0
-4 -4 -4 -10z"/>
<path d="M4662 2110 c-18 -29 -15 -38 4 -12 9 13 14 25 12 27 -2 2 -9 -5 -16
-15z"/>
<path d="M4572 2038 c7 -19 38 -22 38 -4 0 10 -9 16 -21 16 -12 0 -19 -5 -17
-12z"/>
<path d="M5476 1948 c4 -15 3 -18 -7 -13 -9 6 -11 3 -6 -8 3 -10 3 -17 -2 -17
-4 0 -13 -25 -20 -56 -11 -47 -11 -58 0 -65 11 -6 10 -11 -6 -23 -17 -13 -18
-17 -6 -25 12 -8 22 12 51 102 20 62 36 113 35 115 -1 1 -12 5 -24 7 -18 3
-21 1 -15 -17z"/>
<path d="M5156 1941 c-3 -5 21 -30 54 -55 65 -50 75 -44 32 19 -27 39 -72 59
-86 36z"/>
<path d="M1983 1906 c-13 -6 -23 -14 -23 -18 0 -14 17 -8 35 12 20 22 20 22
-12 6z"/>
<path d="M5775 1646 c0 -49 5 -69 19 -85 23 -25 37 -26 79 -5 41 21 38 17 42
51 5 39 -2 48 -50 63 -22 7 -49 19 -60 26 -11 8 -22 14 -25 14 -3 0 -5 -29 -5
-64z m98 -30 c9 -22 -3 -25 -43 -12 -27 9 -36 17 -38 39 l-3 28 39 -20 c22
-11 42 -27 45 -35z"/>
<path d="M5396 1618 c-83 -57 -110 -86 -135 -143 -12 -27 -27 -60 -33 -71 -5
-12 -7 -32 -3 -45 4 -13 4 -21 -1 -16 -11 10 -32 -75 -39 -164 -3 -40 -8 -76
-11 -81 -3 -4 -5 -150 -5 -325 0 -287 18 -647 37 -740 l7 -33 616 0 c550 1
614 2 596 16 -12 9 -21 11 -23 4 -6 -16 -82 -13 -82 4 0 8 -11 17 -25 20 -14
4 -25 11 -25 16 0 6 -6 10 -14 10 -8 0 -18 9 -21 20 -8 26 -19 25 -33 -3 l-11
-22 -1 25 c-1 31 -22 60 -43 60 -9 0 -19 5 -22 10 -3 6 3 10 14 10 13 0 21 7
21 16 0 14 -7 16 -40 11 l-40 -5 0 38 c0 24 -5 40 -15 44 -8 3 -15 11 -15 19
0 7 -16 27 -35 44 -19 17 -35 40 -35 50 0 12 -13 26 -34 36 -27 12 -38 26 -47
57 -9 29 -19 42 -36 46 -19 5 -23 13 -23 46 0 22 -7 46 -15 54 -16 16 -21 89
-7 98 9 6 8 48 -2 64 -10 16 11 51 37 62 17 7 18 9 5 9 -10 1 -18 4 -18 9 0
13 67 45 79 38 7 -4 11 1 11 13 0 30 28 26 36 -4 7 -30 24 -33 31 -5 3 11 11
20 18 20 8 0 10 9 8 24 -3 13 0 27 6 30 18 11 51 -13 51 -38 0 -21 6 -24 60
-29 74 -8 100 -23 100 -59 0 -16 5 -28 10 -28 6 0 10 -6 10 -14 0 -23 22 -31
35 -13 10 14 17 15 44 6 17 -6 31 -15 31 -20 0 -5 8 -9 17 -9 13 0 14 -3 5
-12 -19 -19 -14 -37 18 -78 17 -21 30 -45 30 -54 0 -9 6 -16 13 -17 6 0 30 -2
52 -4 22 -1 30 -1 17 2 -17 3 -22 10 -20 25 2 12 8 23 15 25 11 4 43 -50 43
-74 0 -9 13 -13 40 -13 22 0 40 -4 40 -10 0 -5 -18 -10 -40 -10 -33 0 -40 -3
-40 -20 0 -17 7 -20 48 -20 42 0 50 -4 64 -27 8 -16 13 -34 11 -40 -5 -15 -43
-17 -43 -3 0 20 -21 9 -31 -17 -18 -48 -2 -82 48 -104 24 -10 49 -19 54 -19
11 0 12 27 0 32 -4 2 -12 13 -15 26 -5 15 -3 24 8 28 9 3 16 15 16 25 0 24 8
24 44 0 17 -11 33 -18 38 -15 4 3 12 -6 18 -21 5 -14 26 -35 45 -46 24 -15 35
-28 35 -44 0 -13 5 -27 10 -30 13 -8 13 -40 -1 -87 -12 -46 -29 -50 -29 -7 0
16 -4 28 -9 25 -5 -4 -5 -23 1 -46 9 -33 15 -40 34 -40 30 0 30 -3 -1 -36 -14
-15 -25 -33 -25 -40 0 -8 11 -14 25 -14 14 0 25 -4 25 -10 0 -6 45 -10 116
-10 99 0 115 2 110 15 -23 57 -19 62 8 10 15 -28 16 -13 16 205 l0 235 -64 48
c-36 27 -87 57 -115 68 -57 21 -161 26 -161 7 0 -11 54 -101 103 -172 l20 -29
-26 19 c-15 10 -27 27 -27 36 0 9 -4 20 -10 23 -11 7 -90 140 -90 152 0 4 4 2
9 -6 8 -12 12 -12 26 2 9 10 13 22 8 29 -4 7 -6 21 -5 31 2 12 -4 17 -22 17
-19 0 -25 -6 -28 -27 -4 -25 -5 -26 -13 -8 -4 11 -27 43 -50 70 -22 28 -54 71
-71 97 -34 55 -236 256 -349 349 -161 131 -337 238 -495 299 -30 11 -76 32
-102 46 -37 20 -52 23 -67 14 -11 -5 -26 -10 -33 -9 -7 0 0 6 16 13 l28 13
-37 21 c-20 12 -40 22 -44 22 -5 0 -11 9 -14 20 -5 21 -63 51 -94 49 -10 0
-44 -19 -77 -41z m110 12 c15 -6 39 -22 53 -37 14 -14 37 -30 51 -35 l25 -10
-24 -12 c-20 -11 -21 -14 -6 -19 9 -4 26 -5 38 -3 12 1 16 1 10 -1 -8 -3 -11
-17 -8 -40 4 -31 1 -36 -25 -46 -34 -13 -42 -47 -11 -47 10 0 22 -7 25 -16 8
-22 -2 -33 -14 -15 -4 8 -15 11 -24 8 -18 -7 -21 -23 -6 -32 6 -3 10 -3 10 2
0 4 18 8 40 8 32 0 40 -4 40 -18 0 -15 8 -18 50 -16 27 2 53 0 57 -4 3 -4 -19
-7 -50 -7 -31 0 -57 -4 -57 -10 0 -6 28 -10 63 -10 34 0 57 -4 50 -8 -6 -4 -9
-19 -6 -34 4 -22 12 -27 51 -33 30 -4 41 -10 32 -15 -11 -7 -11 -11 -1 -24 10
-12 9 -18 -8 -35 -12 -12 -21 -25 -21 -31 0 -6 -10 -5 -25 2 -16 7 -24 17 -20
26 8 21 -14 42 -44 42 -51 0 -71 11 -72 39 0 26 0 26 -11 4 -22 -47 -50 -25
-73 55 -4 12 -17 29 -29 38 -22 14 -23 16 -9 55 10 31 11 44 2 55 -16 19 -29
18 -30 -3 -1 -17 -2 -17 -6 0 -3 12 -15 17 -39 17 -20 0 -43 8 -55 18 -10 11
-31 25 -44 32 -22 12 -27 11 -39 -5 -12 -16 -16 -17 -29 -6 -9 7 -21 10 -27 6
-16 -10 -12 13 7 43 24 37 32 42 73 42 38 0 63 11 58 26 -2 5 2 10 7 11 6 0 9
-3 7 -9 -1 -5 2 -6 8 -3 8 5 6 13 -5 25 -15 17 -15 19 2 29 23 13 26 13 59 1z
m224 -151 c0 -6 -4 -7 -10 -4 -5 3 -10 11 -10 16 0 6 5 7 10 4 6 -3 10 -11 10
-16z m39 -6 c-4 -22 3 -33 18 -33 9 0 14 -3 10 -6 -3 -4 -14 -3 -24 1 -10 4
-30 7 -45 6 -16 -2 -28 3 -28 9 0 7 8 10 18 8 10 -3 23 1 30 9 14 14 23 17 21
6z m51 -18 c14 -8 19 -14 10 -14 -8 0 -24 6 -34 14 -25 19 -9 19 24 0z m-514
-18 c4 -4 -2 -7 -14 -7 -16 0 -22 -6 -22 -22 0 -12 -3 -19 -6 -15 -4 3 -4 17
0 31 6 23 26 29 42 13z m564 -1 c0 -2 -7 -7 -16 -10 -8 -3 -12 -2 -9 4 6 10
25 14 25 6z m-610 -90 c0 -39 -6 -31 -14 19 -5 29 -4 36 3 25 6 -8 11 -28 11
-44z m717 18 c-3 -3 -12 -4 -19 -1 -8 3 -5 6 6 6 11 1 17 -2 13 -5z m-137 -58
c0 -8 3 -16 8 -19 4 -2 1 -2 -6 0 -8 1 -21 3 -29 3 -13 0 -13 3 -3 15 16 19
30 19 30 1z m285 -16 c3 -6 -1 -7 -9 -4 -18 7 -21 14 -7 14 6 0 13 -4 16 -10z
m-445 -135 c0 -11 -11 -15 -40 -15 -29 0 -40 4 -40 15 0 11 11 15 40 15 29 0
40 -4 40 -15z m330 -29 c0 -3 -4 -8 -10 -11 -5 -3 -10 -1 -10 4 0 6 5 11 10
11 6 0 10 -2 10 -4z m70 -30 c0 -17 -8 -27 -27 -34 -54 -21 -68 -21 -91 -4
l-23 18 26 14 c21 11 28 12 34 1 9 -14 43 -12 41 3 -2 9 19 26 33 26 4 0 7
-11 7 -24z m-197 -21 c-6 -17 -25 -15 -31 3 -2 7 5 12 17 12 14 0 19 -5 14
-15z m37 -1 c0 -8 -4 -12 -10 -9 -5 3 -10 10 -10 16 0 5 5 9 10 9 6 0 10 -7
10 -16z m-20 -34 c0 -5 -4 -10 -10 -10 -5 0 -10 5 -10 10 0 6 5 10 10 10 6 0
10 -4 10 -10z m101 -47 c-10 -17 -10 -16 -11 3 0 23 13 41 18 25 2 -6 -1 -18
-7 -28z m-74 -5 c-3 -7 -5 -2 -5 12 0 14 2 19 5 13 2 -7 2 -19 0 -25z m-167
-74 c0 -8 -5 -12 -10 -9 -6 4 -8 11 -5 16 9 14 15 11 15 -7z m714 -226 c10
-39 7 -44 -9 -14 -17 33 -18 36 -6 36 5 0 11 -10 15 -22z m346 -218 c0 -5 -5
-10 -11 -10 -5 0 -7 5 -4 10 3 6 8 10 11 10 2 0 4 -4 4 -10z m169 -135 c0 -5
-6 -1 -14 9 -8 11 -15 24 -15 30 0 5 7 1 15 -10 8 -10 14 -23 14 -29z m26 -46
c11 -16 1 -19 -13 -3 -7 8 -8 14 -3 14 5 0 13 -5 16 -11z m70 -119 c9 -16 13
-30 11 -30 -3 0 -12 14 -21 30 -9 17 -13 30 -11 30 3 0 12 -13 21 -30z m49
-86 c3 -8 2 -12 -4 -9 -6 3 -10 10 -10 16 0 14 7 11 14 -7z m-174 -19 c0 -8
-4 -15 -10 -15 -5 0 -7 7 -4 15 4 8 8 15 10 15 2 0 4 -7 4 -15z m30 -35 c0 -5
-7 -10 -15 -10 -8 0 -15 5 -15 10 0 6 7 10 15 10 8 0 15 -4 15 -10z"/>
<path d="M5493 1603 c9 -2 23 -2 30 0 6 3 -1 5 -18 5 -16 0 -22 -2 -12 -5z"/>
<path d="M5520 1520 c0 -5 5 -10 11 -10 5 0 7 5 4 10 -3 6 -8 10 -11 10 -2 0
-4 -4 -4 -10z"/>
<path d="M5323 1500 c1 -11 5 -20 9 -20 4 0 8 9 8 20 0 11 -4 20 -9 20 -6 0
-9 -9 -8 -20z"/>
<path d="M5358 1513 c6 -2 18 -2 25 0 6 3 1 5 -13 5 -14 0 -19 -2 -12 -5z"/>
<path d="M5580 1460 c-12 -7 -12 -12 -3 -21 15 -15 26 -7 21 15 -2 11 -7 13
-18 6z"/>
<path d="M5470 1445 c0 -8 7 -15 15 -15 8 0 15 7 15 15 0 8 -7 15 -15 15 -8 0
-15 -7 -15 -15z"/>
<path d="M5623 1274 c-8 -21 13 -42 28 -27 13 13 5 43 -11 43 -6 0 -13 -7 -17
-16z"/>
<path d="M5738 1173 c7 -3 16 -2 19 1 4 3 -2 6 -13 5 -11 0 -14 -3 -6 -6z"/>
<path d="M6599 1429 c24 -11 46 -18 48 -15 4 4 -73 36 -85 35 -4 0 13 -9 37
-20z"/>
<path d="M6665 1400 c3 -5 8 -10 11 -10 2 0 4 5 4 10 0 6 -5 10 -11 10 -5 0
-7 -4 -4 -10z"/>
<path d="M6510 1350 c6 -11 47 -41 90 -66 72 -42 90 -60 75 -76 -8 -8 -84 20
-116 43 -18 12 -26 25 -22 35 5 15 -25 46 -38 38 -3 -2 -2 -27 2 -56 7 -43 16
-60 45 -87 36 -33 38 -33 105 -29 78 6 106 23 107 66 1 37 -16 57 -63 72 -22
7 -71 28 -109 46 -81 39 -91 41 -76 14z"/>
<path d="M6753 1363 c4 -3 35 -19 68 -34 34 -14 70 -34 80 -43 16 -13 19 -13
19 -1 0 14 -52 41 -134 71 -22 8 -37 11 -33 7z"/>
<path d="M6940 1278 c0 -8 17 -20 38 -27 20 -8 73 -31 116 -52 87 -43 86 -43
86 -30 0 6 -106 61 -232 119 -5 2 -8 -3 -8 -10z"/>
<path d="M2815 1240 c3 -5 11 -10 16 -10 6 0 7 5 4 10 -3 6 -11 10 -16 10 -6
0 -7 -4 -4 -10z"/>
<path d="M2860 1210 c8 -5 20 -10 25 -10 6 0 3 5 -5 10 -8 5 -19 10 -25 10 -5
0 -3 -5 5 -10z"/>
<path d="M3008 1143 c7 -3 16 -2 19 1 4 3 -2 6 -13 5 -11 0 -14 -3 -6 -6z"/>
<path d="M3048 1133 c6 -2 18 -2 25 0 6 3 1 5 -13 5 -14 0 -19 -2 -12 -5z"/>
<path d="M6811 933 c-19 -27 -25 -40 -15 -31 18 16 59 78 51 78 -2 0 -18 -21
-36 -47z"/>
<path d="M6758 863 c-24 -30 -50 -74 -45 -79 3 -3 19 18 36 45 32 52 35 64 9
34z"/>
<path d="M5840 669 c0 -5 5 -7 10 -4 6 3 10 8 10 11 0 2 -4 4 -10 4 -5 0 -10
-5 -10 -11z"/>
<path d="M2043 494 c-6 -11 -18 -43 -29 -72 -14 -40 -15 -55 -6 -61 9 -5 -4
-54 -47 -184 l-60 -177 57 0 57 0 60 173 c50 144 63 172 81 175 16 2 28 20 49
73 15 39 25 73 22 76 -3 3 -44 8 -90 10 -76 5 -86 4 -94 -13z"/>
<path d="M6317 492 c1 -8 3 -16 3 -18 0 -2 7 -4 15 -4 8 0 15 7 15 16 0 10 -6
14 -14 11 -8 -3 -17 -3 -19 1 -2 4 -2 1 0 -6z"/>
<path d="M1843 477 l-53 -10 -21 -70 c-15 -51 -18 -72 -9 -77 9 -5 7 -21 -5
-61 -9 -30 -30 -100 -45 -156 l-28 -103 48 0 48 0 21 73 c55 191 78 254 97
272 12 11 33 48 46 83 l26 62 -37 -1 c-20 -1 -60 -6 -88 -12z"/>
<path d="M2323 448 c-47 -24 -43 -16 -129 -251 -30 -81 -54 -159 -54 -172 l0
-25 173 0 c162 1 201 10 97 23 -86 11 -150 29 -150 41 0 15 80 238 89 248 4 4
46 0 95 -9 l88 -17 -6 -37 -6 -36 51 -7 c28 -4 52 -6 54 -4 1 2 16 47 33 101
33 108 34 107 -38 110 -41 2 -43 0 -55 -33 -12 -34 -13 -34 -18 -10 -4 14 -8
34 -9 45 -2 16 -18 24 -68 37 -85 21 -97 21 -147 -4z"/>
<path d="M2930 376 c0 -2 7 -7 16 -10 8 -3 12 -2 9 4 -6 10 -25 14 -25 6z"/>
<path d="M2800 335 c-25 -14 -48 -26 -52 -27 -5 -2 -28 -72 -52 -155 l-43
-153 62 0 62 0 28 100 c15 57 33 100 40 100 26 0 105 -29 120 -43 8 -9 15 -29
15 -45 0 -28 28 -92 40 -92 3 0 5 37 5 82 0 46 3 99 8 119 7 34 5 37 -22 49
-17 7 -33 20 -36 29 -6 19 -54 45 -100 54 -21 4 -44 -2 -75 -18z"/>
<path d="M3111 186 c-6 -17 -13 -48 -17 -69 -6 -34 -4 -39 16 -44 19 -5 21
-11 17 -39 l-6 -34 240 0 c131 0 239 3 239 6 0 8 -152 78 -327 149 l-152 63
-10 -32z"/>
<path d="M1658 46 c-7 -39 -4 -55 8 -44 3 3 4 23 2 44 l-3 39 -7 -39z"/>
<path d="M6780 65 c0 -8 5 -15 10 -15 6 0 10 7 10 15 0 8 -4 15 -10 15 -5 0
-10 -7 -10 -15z"/>
</g>
</svg>
